<svg xmlns="http://www.w3.org/2000/svg" xmlns:xlink="http://www.w3.org/1999/xlink" width="1117.295" height="746.291" viewBox="0 0 1117.295 746.291"><defs><style>.a,.c{fill:#fff;}.a,.h{fill-rule:evenodd;}.b{clip-path:url(#c);}.d,.e,.h,.i{fill:none;stroke-linejoin:round;stroke-miterlimit:10;stroke-width:2.292px;}.d{stroke:rgba(204,204,204,0);}.e{stroke:#b7b7b7;}.f{clip-path:url(#f);}.g,.j{fill:#c00000;}.h,.i{stroke:#000;}.j,.k,.m{font-size:21px;}.j,.m{font-family:Arial-BoldMT, Arial;font-weight:700;}.k,.l{font-family:ArialMT, Arial;}.l{font-size:20px;}.n{filter:url(#a);}</style><filter id="a" x="0" y="0" width="1117.295" height="746.291" filterUnits="userSpaceOnUse"><feOffset dy="3" input="SourceAlpha"/><feGaussianBlur stdDeviation="24" result="b"/><feFlood flood-opacity="0.161"/><feComposite operator="in" in2="b"/><feComposite in="SourceGraphic"/></filter><clipPath id="c"><rect width="974" height="602" transform="translate(0.296 -0.198)"/></clipPath><clipPath id="f"><rect width="675" height="432" transform="translate(0.095 -0.3)"/></clipPath></defs><g transform="translate(-1293 -239.992)"><g class="n" transform="matrix(1, 0, 0, 1, 1293, 239.99)"><path class="a" d="M1365,330.64A21.642,21.642,0,0,1,1386.642,309h930.011a21.642,21.642,0,0,1,21.642,21.64V889.649a21.643,21.643,0,0,1-21.642,21.642H1386.642A21.643,21.643,0,0,1,1365,889.649Z" transform="translate(-1293 -240)"/></g><g class="b" transform="translate(1363.999 308.979)"><rect class="c" width="673" height="431" transform="translate(151.296 75.802)"/></g><g class="b" transform="translate(1363.999 308.979)"><path class="d" d="M1683,901.512h673.565M1683,893.016h673.565M1683,884.048h673.565M1683,875.552h673.565M1683,858.559h673.565M1683,849.591h673.565M1683,841.095h673.565M1683,832.6h673.565M1683,815.134h673.565M1683,806.637h673.565M1683,798.141h673.565M1683,789.645h673.565M1683,772.18h673.565M1683,763.684h673.565M1683,755.183h673.565M1683,746.215h673.565M1683,729.224h673.565M1683,720.727h673.565M1683,711.759h673.565M1683,703.262h673.565M1683,686.269h673.565M1683,677.3h673.565M1683,668.8h673.565M1683,660.307h673.565M1683,642.842h673.565M1683,634.345h673.565M1683,625.849h673.565M1683,617.352h673.565M1683,599.887h673.565M1683,591.391h673.565M1683,582.894h673.565M1683,573.926h673.565M1683,556.932h673.565M1683,548.436h673.565M1683,539.468h673.565M1683,530.971h673.565M1683,513.978h673.565M1683,505.481h673.565M1683,496.513h673.565M1683,488.016h673.565" transform="translate(-1531.898 -403.505)"/></g><g class="b" transform="translate(1363.999 308.979)"><path class="e" d="M1683,857.543h673.565M1683,814.59h673.565M1683,771.164h673.565M1683,728.206h673.565M1683,685.253h673.565M1683,642.3h673.565M1683,598.871h673.565M1683,555.917h673.565M1683,512.962h673.565M1683,470h673.565" transform="translate(-1531.898 -393.993)"/></g><g class="f" transform="translate(1515.2 385.08)"><rect class="g" width="38" height="155" transform="translate(29.095 275.7)"/></g><g class="f" transform="translate(1515.2 385.08)"><rect class="g" width="39" height="99" transform="translate(125.095 331.7)"/></g><g class="f" transform="translate(1515.2 385.08)"><rect class="g" width="39" height="99" transform="translate(221.095 331.7)"/></g><g class="f" transform="translate(1515.2 385.08)"><rect class="g" width="39" height="77" transform="translate(317.095 353.7)"/></g><g class="f" transform="translate(1515.2 385.08)"><rect class="g" width="40" height="112" transform="translate(413.095 318.7)"/></g><g class="f" transform="translate(1515.2 385.08)"><rect class="g" width="37" height="120" transform="translate(511.095 310.7)"/></g><g class="f" transform="translate(1515.2 385.08)"><rect class="g" width="39" height="110" transform="translate(606.095 320.7)"/></g><g class="b" transform="translate(1363.999 308.979)"><path class="h" d="M1683,1382h673.565" transform="translate(-1531.898 -875.515)"/></g><g class="b" transform="translate(1363.999 308.979)"><path class="i" d="M1731.174,1369.911v9.44m96.3-9.44v9.44m96.291-9.44v9.44m96.3-9.44v9.44m95.824-9.44v9.44m96.291-9.44v9.44m96.3-9.44v9.44m48.1-9.44v9.44M1683,1368v13.216M1779.319,1368v13.216m96.3-13.216v13.216m96.3-13.216v13.216M2068.2,1368v13.216M2164.026,1368v13.216m96.3-13.216v13.216M2356.565,1368v13.216" transform="translate(-1531.898 -868.123)"/></g><g class="b" transform="translate(1363.999 308.979)"><text class="j" transform="translate(168.684 336.207)"><tspan x="0" y="0">36.0%</tspan></text></g><g class="b" transform="translate(1363.999 308.979)"><text class="j" transform="translate(264.891 392.377)"><tspan x="0" y="0">23.0%</tspan></text></g><g class="b" transform="translate(1363.999 308.979)"><text class="j" transform="translate(361.101 392.377)"><tspan x="0" y="0">23.0%</tspan></text></g><g class="b" transform="translate(1363.999 308.979)"><text class="j" transform="translate(457.307 414.09)"><tspan x="0" y="0">18.0%</tspan></text></g><g class="b" transform="translate(1363.999 308.979)"><text class="j" transform="translate(553.518 379.632)"><tspan x="0" y="0">26.0%</tspan></text></g><g class="b" transform="translate(1363.999 308.979)"><text class="j" transform="translate(649.724 370.664)"><tspan x="0" y="0">28.0%</tspan></text></g><g class="b" transform="translate(1363.999 308.979)"><text class="j" transform="translate(745.935 381.048)"><tspan x="0" y="0">25.7%</tspan></text></g><g class="b" transform="translate(1363.999 308.979)"><text class="k" transform="translate(83.321 512.741)"><tspan x="0" y="0">0.0%</tspan></text></g><g class="b" transform="translate(1363.999 308.979)"><text class="k" transform="translate(71.294 469.787)"><tspan x="0" y="0">10.0%</tspan></text></g><g class="b" transform="translate(1363.999 308.979)"><text class="k" transform="translate(71.294 426.834)"><tspan x="0" y="0">20.0%</tspan></text></g><g class="b" transform="translate(1363.999 308.979)"><text class="k" transform="translate(71.294 383.409)"><tspan x="0" y="0">30.0%</tspan></text></g><g class="b" transform="translate(1363.999 308.979)"><text class="k" transform="translate(71.294 340.455)"><tspan x="0" y="0">40.0%</tspan></text></g><g class="b" transform="translate(1363.999 308.979)"><text class="k" transform="translate(71.294 297.502)"><tspan x="0" y="0">50.0%</tspan></text></g><g class="b" transform="translate(1363.999 308.979)"><text class="k" transform="translate(71.294 254.548)"><tspan x="0" y="0">60.0%</tspan></text></g><g class="b" transform="translate(1363.999 308.979)"><text class="k" transform="translate(71.294 211.595)"><tspan x="0" y="0">70.0%</tspan></text></g><g class="b" transform="translate(1363.999 308.979)"><text class="k" transform="translate(71.294 168.17)"><tspan x="0" y="0">80.0%</tspan></text></g><g class="b" transform="translate(1363.999 308.979)"><text class="k" transform="translate(71.294 125.216)"><tspan x="0" y="0">90.0%</tspan></text></g><g class="b" transform="translate(1363.999 308.979)"><text class="k" transform="translate(59.267 82.263)"><tspan x="0" y="0">100.0%</tspan></text></g><g class="b" transform="translate(1363.999 308.979)"><text class="l" transform="translate(193.333 537.701)"><tspan x="0" y="0">1</tspan></text></g><g class="b" transform="translate(1363.999 308.979)"><text class="l" transform="translate(289.544 537.701)"><tspan x="0" y="0">2</tspan></text></g><g class="b" transform="translate(1363.999 308.979)"><text class="l" transform="translate(385.75 537.701)"><tspan x="0" y="0">3</tspan></text></g><g class="b" transform="translate(1363.999 308.979)"><text class="l" transform="translate(481.961 537.701)"><tspan x="0" y="0">4</tspan></text></g><g class="b" transform="translate(1363.999 308.979)"><text class="l" transform="translate(578.167 537.701)"><tspan x="0" y="0">5</tspan></text></g><g class="b" transform="translate(1363.999 308.979)"><text class="l" transform="translate(674.378 537.701)"><tspan x="0" y="0">6</tspan></text></g><g class="b" transform="translate(1363.999 308.979)"><text class="k" transform="translate(737.519 538.701)"><tspan x="0" y="0">average</tspan></text></g><g class="b" transform="translate(1363.999 308.979)"><text class="m" transform="translate(441.094 569.854)"><tspan x="0" y="0">Category</tspan></text></g></g></svg>