<svg xmlns="http://www.w3.org/2000/svg" xmlns:xlink="http://www.w3.org/1999/xlink" width="1038.358" height="697" viewBox="0 0 1038.358 697"><defs><style>.a,.c{fill:#fff;}.a,.i{fill-rule:evenodd;}.b{clip-path:url(#c);}.d,.e,.i,.j{fill:none;stroke-linejoin:round;stroke-miterlimit:10;stroke-width:2.292px;}.d{stroke:rgba(204,204,204,0);}.e{stroke:#b7b7b7;}.f{clip-path:url(#f);}.g{fill:#bfbfbf;}.h{fill:#487c72;}.i,.j{stroke:#000;}.k{fill:#7f7f7f;}.k,.l,.m,.o,.p{font-size:12px;}.k,.l,.o{font-family:Arial-BoldMT, Arial;font-weight:700;}.l,.q{fill:#4e6863;}.m,.n,.p{font-family:ArialMT, Arial;}.n{font-size:13px;}.p{fill:#1a1a1a;}.r{filter:url(#a);}</style><filter id="a" x="0" y="0" width="1038.358" height="697" filterUnits="userSpaceOnUse"><feOffset dy="3" input="SourceAlpha"/><feGaussianBlur stdDeviation="24" result="b"/><feFlood flood-opacity="0.102"/><feComposite operator="in" in2="b"/><feComposite in="SourceGraphic"/></filter><clipPath id="c"><rect width="894" height="553" transform="translate(0.231 0.001)"/></clipPath><clipPath id="f"><rect width="575" height="393" transform="translate(0.485 0.125)"/></clipPath></defs><g transform="translate(-766.769 -25040)"><g class="r" transform="matrix(1, 0, 0, 1, 766.77, 25040)"><path class="a" d="M1561,494.217A14.217,14.217,0,0,1,1575.216,480h865.926a14.217,14.217,0,0,1,14.216,14.217v524.567A14.216,14.216,0,0,1,2441.142,1033H1575.216A14.216,14.216,0,0,1,1561,1018.784Z" transform="translate(-1489 -411)"/></g><g class="b" transform="translate(838.769 25109)"><rect class="c" width="574" height="392" transform="translate(122.231 74.001)"/></g><g class="b" transform="translate(838.769 25109)"><path class="d" d="M1952,1117.839h574.723M1952,1110.081h574.723M1952,1102.323h574.723M1952,1094.565h574.723M1952,1078.738h574.723M1952,1070.98h574.723M1952,1063.222h574.723M1952,1055.154h574.723M1952,1039.637h574.723M1952,1031.876h574.723M1952,1023.808h574.723M1952,1016.05h574.723M1952,1000.533h574.723M1952,992.465h574.723M1952,984.707h574.723M1952,976.948h574.723M1952,961.432h574.723M1952,953.364h574.723M1952,945.606h574.723M1952,937.847h574.723M1952,922.018h574.723M1952,914.26h574.723M1952,906.5h574.723M1952,898.743h574.723M1952,882.917h574.723M1952,875.159h574.723M1952,867.4h574.723M1952,859.332h574.723M1952,843.816h574.723M1952,836.054h574.723M1952,827.986h574.723M1952,820.229h574.723M1952,804.712h574.723M1952,796.643h574.723M1952,788.885h574.723M1952,781.126h574.723M1952,765.3h574.723M1952,757.541h574.723M1952,749.782h574.723M1952,742.024h574.723" transform="translate(-1830.663 -660.711)"/></g><g class="b" transform="translate(838.769 25109)"><path class="e" d="M1952,1069.238h574.723M1952,1030.137h574.723M1952,991.033h574.723M1952,951.932h574.723M1952,912.828h574.723M1952,873.417h574.723M1952,834.315h574.723M1952,795.212h574.723M1952,756.11h574.723M1952,717h574.723" transform="translate(-1830.663 -643.452)"/></g><g class="f" transform="translate(960.515 25181.875)"><path class="g" d="M2009.07,979.241h23.585v129.39H2009.07Zm82.236,0h23.278v129.39h-23.278ZM2173.235,717h23.588v391.631h-23.588Zm82.239,129.108h23.274v262.523h-23.274Zm81.929-62.689h23.585v325.211H2337.4Zm82.24,129.409h23.274v195.8h-23.274Zm81.929-43.135h23.585v238.938h-23.585Z" transform="translate(-1991.768 -716.328)"/></g><g class="f" transform="translate(960.515 25181.875)"><path class="h" d="M2085.07,1061.542h23.274v168.491H2085.07ZM2167,951.994h23.585v278.039H2167Zm82.239-58.965h23.274v337h-23.274Zm81.926,0h23.588v337h-23.588Zm82.239,0h23.278v337H2413.4Zm81.929,58.965h23.584v278.039h-23.584Zm82.239-11.175h23.274v289.214h-23.274Z" transform="translate(-2044.184 -837.731)"/></g><g class="b" transform="translate(838.769 25109)"><path class="i" d="M1952,1979h574.723" transform="translate(-1830.663 -1513.822)"/></g><g class="b" transform="translate(838.769 25109)"><path class="j" d="M1993.3,1965.95v6.52m81.929-6.52v6.52m82.239-6.52v6.52m81.926-6.52v6.52m82.24-6.52v6.52m81.929-6.52v6.52m82.24-6.52v6.52m40.926-6.52v6.52M1952,1965v8.689m82.258-8.689v8.689m81.929-8.689v8.689m82.24-8.689v8.689m82.239-8.689v8.689m81.929-8.689v8.689m82.239-8.689v8.689m81.889-8.689v8.689" transform="translate(-1830.663 -1504.166)"/></g><g class="b" transform="translate(838.769 25109)"><text class="k" transform="translate(136.577 324.429)"><tspan x="0" y="0">33%</tspan></text></g><g class="b" transform="translate(838.769 25109)"><text class="k" transform="translate(218.665 324.429)"><tspan x="0" y="0">33%</tspan></text></g><g class="b" transform="translate(838.769 25109)"><text class="k" transform="translate(296.801 61.894)"><tspan x="0" y="0">100%</tspan></text></g><g class="b" transform="translate(838.769 25109)"><text class="k" transform="translate(382.845 191.3)"><tspan x="0" y="0">67%</tspan></text></g><g class="b" transform="translate(838.769 25109)"><text class="k" transform="translate(464.936 128.614)"><tspan x="0" y="0">83%</tspan></text></g><g class="b" transform="translate(838.769 25109)"><text class="k" transform="translate(547.026 257.709)"><tspan x="0" y="0">50%</tspan></text></g><g class="b" transform="translate(838.769 25109)"><text class="k" transform="translate(629.113 214.574)"><tspan x="0" y="0">61%</tspan></text></g><g class="b" transform="translate(838.769 25109)"><text class="l" transform="translate(160.032 285.328)"><tspan x="0" y="0">43%</tspan></text></g><g class="b" transform="translate(838.769 25109)"><text class="l" transform="translate(242.119 175.473)"><tspan x="0" y="0">71%</tspan></text></g><g class="b" transform="translate(838.769 25109)"><text class="l" transform="translate(324.209 116.822)"><tspan x="0" y="0">86%</tspan></text></g><g class="b" transform="translate(838.769 25109)"><text class="l" transform="translate(406.3 116.822)"><tspan x="0" y="0">86%</tspan></text></g><g class="b" transform="translate(838.769 25109)"><text class="l" transform="translate(488.39 116.822)"><tspan x="0" y="0">86%</tspan></text></g><g class="b" transform="translate(838.769 25109)"><text class="l" transform="translate(570.481 175.473)"><tspan x="0" y="0">71%</tspan></text></g><g class="b" transform="translate(838.769 25109)"><text class="l" transform="translate(652.568 164.301)"><tspan x="0" y="0">74%</tspan></text></g><g class="b" transform="translate(838.769 25109)"><text class="m" transform="translate(88.697 467.8)"><tspan x="0" y="0">0%</tspan></text></g><g class="b" transform="translate(838.769 25109)"><text class="m" transform="translate(80.787 428.699)"><tspan x="0" y="0">10%</tspan></text></g><g class="b" transform="translate(838.769 25109)"><text class="m" transform="translate(80.787 389.287)"><tspan x="0" y="0">20%</tspan></text></g><g class="b" transform="translate(838.769 25109)"><text class="m" transform="translate(80.787 350.186)"><tspan x="0" y="0">30%</tspan></text></g><g class="b" transform="translate(838.769 25109)"><text class="m" transform="translate(80.787 311.085)"><tspan x="0" y="0">40%</tspan></text></g><g class="b" transform="translate(838.769 25109)"><text class="m" transform="translate(80.787 271.984)"><tspan x="0" y="0">50%</tspan></text></g><g class="b" transform="translate(838.769 25109)"><text class="m" transform="translate(80.787 232.573)"><tspan x="0" y="0">60%</tspan></text></g><g class="b" transform="translate(838.769 25109)"><text class="m" transform="translate(80.787 193.472)"><tspan x="0" y="0">70%</tspan></text></g><g class="b" transform="translate(838.769 25109)"><text class="m" transform="translate(80.787 154.371)"><tspan x="0" y="0">80%</tspan></text></g><g class="b" transform="translate(838.769 25109)"><text class="m" transform="translate(80.787 115.27)"><tspan x="0" y="0">90%</tspan></text></g><g class="b" transform="translate(838.769 25109)"><text class="n" transform="translate(73.231 77.001)"><tspan x="0" y="0">100%</tspan></text></g><g class="b" transform="translate(838.769 25109)"><text class="m" transform="translate(158.579 484.557)"><tspan x="0" y="0">1</tspan></text></g><g class="b" transform="translate(838.769 25109)"><text class="m" transform="translate(240.67 484.557)"><tspan x="0" y="0">2</tspan></text></g><g class="b" transform="translate(838.769 25109)"><text class="m" transform="translate(322.76 484.557)"><tspan x="0" y="0">3</tspan></text></g><g class="b" transform="translate(838.769 25109)"><text class="m" transform="translate(404.851 484.557)"><tspan x="0" y="0">4</tspan></text></g><g class="b" transform="translate(838.769 25109)"><text class="m" transform="translate(486.938 484.557)"><tspan x="0" y="0">5</tspan></text></g><g class="b" transform="translate(838.769 25109)"><text class="m" transform="translate(569.028 484.557)"><tspan x="0" y="0">6</tspan></text></g><g class="b" transform="translate(838.769 25109)"><text class="m" transform="translate(628.589 484.557)"><tspan x="0" y="0">Average</tspan></text></g><g class="b" transform="translate(838.769 25109)"><text class="o" transform="translate(392.596 505.039)"><tspan x="0" y="0">Task</tspan></text></g><g class="b" transform="translate(838.769 25109)"><rect class="g" width="7" height="7" transform="translate(753.231 297.001)"/></g><g class="b" transform="translate(838.769 25109)"><text class="p" transform="translate(763.605 302.396)"><tspan x="0" y="0">original design</tspan></text></g><g class="b" transform="translate(838.769 25109)"><rect class="q" width="7" height="7" transform="translate(753.231 321.001)"/></g><g class="b" transform="translate(838.769 25109)"><text class="p" transform="translate(763.605 326.602)"><tspan x="0" y="0">redesign</tspan></text></g></g></svg>