<svg xmlns="http://www.w3.org/2000/svg" xmlns:xlink="http://www.w3.org/1999/xlink" width="785" height="540.344" viewBox="0 0 785 540.344"><defs><style>.a,.c{fill:#fff;}.a,.j{fill-rule:evenodd;}.b{clip-path:url(#c);}.d,.e,.j,.k{fill:none;stroke-linejoin:round;stroke-miterlimit:10;stroke-width:2.292px;}.d{stroke:rgba(204,204,204,0);}.e{stroke:#b7b7b7;}.f{clip-path:url(#f);}.g{fill:#bfbfbf;}.h{fill:#487c72;}.i,.n{fill:#a94f4f;}.j,.k{stroke:#000;}.l{fill:#7f7f7f;}.l,.m,.n,.o,.q,.r{font-size:7px;}.l,.m,.n,.q{font-family:Arial-BoldMT, Arial;font-weight:700;}.m,.s{fill:#4e6863;}.o,.p,.r{font-family:ArialMT, Arial;}.p{font-size:9px;}.r{fill:#1a1a1a;}.t{filter:url(#a);}</style><filter id="a" x="0" y="0" width="785" height="540.344" filterUnits="userSpaceOnUse"><feOffset dy="3" input="SourceAlpha"/><feGaussianBlur stdDeviation="24" result="b"/><feFlood flood-opacity="0.102"/><feComposite operator="in" in2="b"/><feComposite in="SourceGraphic"/></filter><clipPath id="c"><rect width="641" height="396" transform="translate(0 0.029)"/></clipPath><clipPath id="f"><rect width="412" height="282" transform="translate(-0.232 -0.488)"/></clipPath></defs><g transform="translate(-766.769 -25040)"><g class="t" transform="matrix(1, 0, 0, 1, 766.77, 25040)"><path class="a" d="M1561,490.19A10.189,10.189,0,0,1,1571.189,480h620.622A10.19,10.19,0,0,1,2202,490.19V866.154a10.189,10.189,0,0,1-10.189,10.189H1571.189A10.189,10.189,0,0,1,1561,866.154Z" transform="translate(-1489 -411)"/></g><g class="b" transform="translate(838.769 25109.24)"><rect class="c" width="412" height="282" transform="translate(87 52.029)"/></g><g class="b" transform="translate(838.769 25109.24)"><path class="d" d="M1952,1011.376h411.912M1952,1005.816h411.912M1952,1000.256h411.912M1952,994.7h411.912M1952,983.352h411.912M1952,977.792h411.912M1952,972.231h411.912M1952,966.449h411.912M1952,955.328h411.912M1952,949.765h411.912M1952,943.982h411.912M1952,938.422h411.912M1952,927.3h411.912M1952,921.519h411.912M1952,915.958h411.912M1952,910.4h411.912M1952,899.277h411.912M1952,893.494h411.912M1952,887.934h411.912M1952,882.374h411.912M1952,871.028h411.912M1952,865.468h411.912M1952,859.908h411.912M1952,854.347h411.912M1952,843h411.912M1952,837.444h411.912M1952,831.883h411.912M1952,826.1h411.912M1952,814.98h411.912M1952,809.417h411.912M1952,803.634h411.912M1952,798.075h411.912M1952,786.953h411.912M1952,781.17h411.912M1952,775.61h411.912M1952,770.049h411.912M1952,758.706h411.912M1952,753.145h411.912M1952,747.585h411.912M1952,742.024h411.912" transform="translate(-1865.036 -683.985)"/></g><g class="b" transform="translate(838.769 25109.24)"><path class="e" d="M1952,969.454h411.912M1952,941.43h411.912M1952,913.4h411.912M1952,885.379h411.912M1952,857.353h411.912M1952,829.106h411.912M1952,801.082h411.912M1952,773.056h411.912M1952,745.031h411.912M1952,717h411.912" transform="translate(-1865.036 -664.527)"/></g><g class="f" transform="translate(926.001 25161.758)"><path class="g" d="M2009.07,904.952h16.9v92.736h-16.9Zm58.94,0h16.683v92.736H2068.01ZM2126.73,717h16.906V997.688H2126.73Zm58.942,92.533h16.681V997.688h-16.681Zm58.72-44.93h16.9V997.688h-16.9Zm58.942,92.749h16.681V997.688h-16.681Zm58.719-30.916h16.9v171.25h-16.9Z" transform="translate(-1996.645 -717.044)"/></g><g class="f" transform="translate(926.001 25161.758)"><path class="h" d="M2085.07,1013.8h16.681v120.76H2085.07Zm58.72-78.515h16.9v199.275h-16.9Zm58.942-42.261h16.681v241.536h-16.681Zm58.718,0h16.906v241.536H2261.45Zm58.942,0h16.683v241.536h-16.683Zm58.72,42.261h16.9v199.275h-16.9Zm58.942-8.009h16.681v207.284h-16.681Z" transform="translate(-2055.741 -853.922)"/></g><rect class="i" width="17" height="242" transform="translate(1072.769 25200.27)"/><g class="b" transform="translate(838.769 25109.24)"><path class="j" d="M1952,1979h411.912" transform="translate(-1865.036 -1645.839)"/></g><g class="b" transform="translate(838.769 25109.24)"><path class="k" d="M1981.6,1965.681v4.673m58.72-4.673v4.673m58.942-4.673v4.673m58.718-4.673v4.673m58.942-4.673v4.673m58.719-4.673v4.673m58.942-4.673v4.673m29.332-4.673v4.673M1952,1965v6.228m58.956-6.228v6.228m58.72-6.228v6.228m58.942-6.228v6.228M2187.56,1965v6.228m58.72-6.228v6.228m58.942-6.228v6.228m58.691-6.228v6.228" transform="translate(-1865.036 -1634.953)"/></g><g class="b" transform="translate(838.769 25109.24)"><text class="l" transform="translate(97.887 230.4)"><tspan x="0" y="0">33%</tspan></text></g><g class="b" transform="translate(838.769 25109.24)"><text class="l" transform="translate(156.72 230.4)"><tspan x="0" y="0">33%</tspan></text></g><g class="b" transform="translate(838.769 25109.24)"><text class="l" transform="translate(212.722 42.237)"><tspan x="0" y="0">100%</tspan></text></g><g class="b" transform="translate(838.769 25109.24)"><text class="l" transform="translate(274.391 134.984)"><tspan x="0" y="0">67%</tspan></text></g><g class="b" transform="translate(838.769 25109.24)"><text class="l" transform="translate(333.226 90.056)"><tspan x="0" y="0">83%</tspan></text></g><g class="b" transform="translate(838.769 25109.24)"><text class="l" transform="translate(392.062 182.581)"><tspan x="0" y="0">50%</tspan></text></g><g class="b" transform="translate(838.769 25109.24)"><text class="l" transform="translate(450.895 151.665)"><tspan x="0" y="0">61%</tspan></text></g><g class="b" transform="translate(838.769 25109.24)"><text class="m" transform="translate(114.697 202.376)"><tspan x="0" y="0">43%</tspan></text></g><g class="b" transform="translate(838.769 25109.24)"><text class="m" transform="translate(173.53 123.641)"><tspan x="0" y="0">71%</tspan></text></g><g class="b" transform="translate(838.769 25109.24)"><text class="n" transform="translate(232.366 81.605)"><tspan x="0" y="0">86%</tspan></text></g><g class="b" transform="translate(838.769 25109.24)"><text class="m" transform="translate(291.201 81.605)"><tspan x="0" y="0">86%</tspan></text></g><g class="b" transform="translate(838.769 25109.24)"><text class="m" transform="translate(350.036 81.605)"><tspan x="0" y="0">86%</tspan></text></g><g class="b" transform="translate(838.769 25109.24)"><text class="m" transform="translate(408.872 123.641)"><tspan x="0" y="0">71%</tspan></text></g><g class="b" transform="translate(838.769 25109.24)"><text class="m" transform="translate(467.705 115.634)"><tspan x="0" y="0">74%</tspan></text></g><g class="b" transform="translate(838.769 25109.24)"><text class="o" transform="translate(63.571 333.156)"><tspan x="0" y="0">0%</tspan></text></g><g class="b" transform="translate(838.769 25109.24)"><text class="o" transform="translate(57.901 305.131)"><tspan x="0" y="0">10%</tspan></text></g><g class="b" transform="translate(838.769 25109.24)"><text class="o" transform="translate(57.901 276.885)"><tspan x="0" y="0">20%</tspan></text></g><g class="b" transform="translate(838.769 25109.24)"><text class="o" transform="translate(57.901 248.861)"><tspan x="0" y="0">30%</tspan></text></g><g class="b" transform="translate(838.769 25109.24)"><text class="o" transform="translate(57.901 220.836)"><tspan x="0" y="0">40%</tspan></text></g><g class="b" transform="translate(838.769 25109.24)"><text class="o" transform="translate(57.901 192.812)"><tspan x="0" y="0">50%</tspan></text></g><g class="b" transform="translate(838.769 25109.24)"><text class="o" transform="translate(57.901 164.565)"><tspan x="0" y="0">60%</tspan></text></g><g class="b" transform="translate(838.769 25109.24)"><text class="o" transform="translate(57.901 136.541)"><tspan x="0" y="0">70%</tspan></text></g><g class="b" transform="translate(838.769 25109.24)"><text class="o" transform="translate(57.901 108.517)"><tspan x="0" y="0">80%</tspan></text></g><g class="b" transform="translate(838.769 25109.24)"><text class="o" transform="translate(57.901 80.493)"><tspan x="0" y="0">90%</tspan></text></g><g class="b" transform="translate(838.769 25109.24)"><text class="p" transform="translate(53 54.03)"><tspan x="0" y="0">100%</tspan></text></g><g class="b" transform="translate(838.769 25109.24)"><text class="o" transform="translate(113.656 345.166)"><tspan x="0" y="0">1</tspan></text></g><g class="b" transform="translate(838.769 25109.24)"><text class="o" transform="translate(172.492 345.166)"><tspan x="0" y="0">2</tspan></text></g><g class="b" transform="translate(838.769 25109.24)"><text class="o" transform="translate(231.327 345.166)"><tspan x="0" y="0">3</tspan></text></g><g class="b" transform="translate(838.769 25109.24)"><text class="o" transform="translate(290.162 345.166)"><tspan x="0" y="0">4</tspan></text></g><g class="b" transform="translate(838.769 25109.24)"><text class="o" transform="translate(348.996 345.166)"><tspan x="0" y="0">5</tspan></text></g><g class="b" transform="translate(838.769 25109.24)"><text class="o" transform="translate(407.831 345.166)"><tspan x="0" y="0">6</tspan></text></g><g class="b" transform="translate(838.769 25109.24)"><text class="o" transform="translate(450.519 345.166)"><tspan x="0" y="0">Average</tspan></text></g><g class="b" transform="translate(838.769 25109.24)"><text class="q" transform="translate(281.379 359.845)"><tspan x="0" y="0">Task</tspan></text></g><g class="b" transform="translate(838.769 25109.24)"><rect class="g" width="6" height="5" transform="translate(539 213.029)"/></g><g class="b" transform="translate(838.769 25109.24)"><text class="r" transform="translate(547.287 214.609)"><tspan x="0" y="0">original design</tspan></text></g><g class="b" transform="translate(838.769 25109.24)"><rect class="s" width="6" height="5" transform="translate(539 230.029)"/></g><g class="b" transform="translate(838.769 25109.24)"><text class="r" transform="translate(547.287 231.957)"><tspan x="0" y="0">redesign</tspan></text></g></g></svg>