<svg xmlns="http://www.w3.org/2000/svg" width="642" height="504" viewBox="0 0 642 504"><g transform="translate(-1106 -6649)"><text transform="translate(1106 6670)" fill="#848484" font-size="18" font-family="NotoSansSC-Black, Noto Sans SC" font-weight="800"><tspan x="0" y="0">ERROR PREVENTION</tspan></text><g transform="translate(0 4)"><text transform="translate(1106 7101)" font-size="16" font-family="NotoSansSC-Regular, Noto Sans SC"><tspan x="0" y="19">Menu shows up only after user click on the navigatoin bar. </tspan><tspan x="0" y="43">Add 3rd-level menu, or side-menu after clicking 2th-level menu.</tspan></text><text transform="translate(1106 7087)" font-size="20" font-family="NotoSansSC-Bold, Noto Sans SC" font-weight="700"><tspan x="0" y="0">Recommendation</tspan></text></g><g transform="translate(0 -5)"><text transform="translate(1106 6937)" font-size="16" font-family="NotoSansSC-Regular, Noto Sans SC"><tspan x="0" y="19">When user hover the cursor on the navigation bar. The massive sub-navigation menu </tspan><tspan x="0" y="43">will pop up and take up all the space of the entire browser. Users can only move the </tspan><tspan x="0" y="67">cursor outside of the menu&apos;s edge to collapse it. It&apos;s annoying when users accidently </tspan><tspan x="0" y="91">touch the navigation bar.</tspan></text><text transform="translate(1106 6923)" font-size="20" font-family="NotoSansSC-Bold, Noto Sans SC" font-weight="700"><tspan x="0" y="0">Effects</tspan></text></g><text transform="translate(1106 6727)" font-size="30" font-family="NotoSansSC-Black, Noto Sans SC" font-weight="800"><tspan x="0" y="0">Hair-Trigger Navigation Bar</tspan></text><g transform="translate(887 2173)"><g transform="translate(-26 54)"><text transform="translate(482 4622)" fill="#888" font-size="20" font-family="NotoSansSC-Thin, Noto Sans SC" font-weight="200"><tspan x="-46.01" y="0">Frequency</tspan></text><text transform="translate(482 4583)" fill="#f5da2a" font-size="24" font-family="NotoSansSC-Black, Noto Sans SC" font-weight="800"><tspan x="-49.092" y="0">Medium</tspan></text></g><g transform="translate(-26 54)"><text transform="translate(649 4622)" fill="#888" font-size="20" font-family="NotoSansSC-Thin, Noto Sans SC" font-weight="200"><tspan x="-30.74" y="0">Impact</tspan></text><text transform="translate(648 4585)" fill="#ff4343" font-size="24" font-family="NotoSansSC-Black, Noto Sans SC" font-weight="800"><tspan x="-28.428" y="0">High</tspan></text></g><g transform="translate(11 54)"><text transform="translate(800 4622)" fill="#888" font-size="20" font-family="NotoSansSC-Thin, Noto Sans SC" font-weight="200"><tspan x="-49.97" y="0">persistence</tspan></text><text transform="translate(800 4585)" fill="#ff4343" font-size="24" font-family="NotoSansSC-Black, Noto Sans SC" font-weight="800"><tspan x="-28.428" y="0">High</tspan></text></g><line y2="44" transform="translate(369.5 4604.5)" fill="none" stroke="#dfdfdf" stroke-width="1"/><line y2="44" transform="translate(550.5 4604.5)" fill="none" stroke="#dfdfdf" stroke-width="1"/><line y2="44" transform="translate(711.5 4604.5)" fill="none" stroke="#dfdfdf" stroke-width="1"/><g transform="translate(2 54)"><text transform="translate(281 4622)" fill="#888" font-size="20" font-family="NotoSansSC-Thin, Noto Sans SC" font-weight="200"><tspan x="-56.85" y="0">Severe Level </tspan></text><g transform="translate(263 4555)"><path d="M18,0A18,18,0,1,1,0,18,18,18,0,0,1,18,0Z" fill="#ff8943"/><text transform="translate(12 26)" fill="#fff" font-size="20" font-family="NotoSansSC-Medium, Noto Sans SC" font-weight="500"><tspan x="0" y="0">3</tspan></text></g></g></g></g></svg>