<svg xmlns="http://www.w3.org/2000/svg" xmlns:xlink="http://www.w3.org/1999/xlink" width="1296" height="778.004" viewBox="0 0 1296 778.004"><defs><style>.a{fill:#fff;}.b{clip-path:url(#a);}.c,.g{fill:none;stroke:#d9d9d9;stroke-linejoin:round;stroke-miterlimit:10;stroke-width:3.438px;}.d{clip-path:url(#b);}.e{fill:#487c72;}.f{fill:#c00000;}.g{fill-rule:evenodd;}.h{fill:#404040;}.h,.i{font-size:20px;}.h,.i,.j,.k{font-family:ArialMT, Arial;}.i,.j,.k{fill:#595959;}.j{font-size:23px;}.k{font-size:33px;}</style><clipPath id="a"><rect width="1296" height="778" transform="translate(0.205 0.204)"/></clipPath><clipPath id="b"><rect width="911" height="527" transform="translate(-0.256 0.44)"/></clipPath></defs><g transform="translate(-1420 -1058.641)"><rect class="a" width="1295" height="777" transform="translate(1421 1059.643)"/><g class="b" transform="translate(1419.795 1058.438)"><path class="c" d="M2354.58,1325.5v527.331M2536.33,1325.5v527.331m181.75-527.331v527.331m181.75-527.331v527.331M3081.515,1325.5v527.331" transform="translate(-1846.888 -1179.826)"/></g><g class="d" transform="translate(1746.255 1204.202)"><path class="e" d="M2436.163,1850.463H2020v-16.818h416.163Zm-75.411-47.742H2020v-17.361h340.752Zm113.387-48.284H2020v-16.818h454.139Zm302.738-47.742H2020v-16.824h756.877Zm-302.738-47.747H2020v-17.36h454.139Zm75.959-48.284H2020v-16.818h530.1Zm-151.369-47.742H2020V1546.1h378.729Zm-113.935-47.747H2020v-17.361h264.794Zm303.28-48.285H2020v-16.818h568.074Zm188.8-47.742H2020V1402.33h756.877Zm-264.756-47.742H2020V1354.04h492.121Z" transform="translate(-2020.285 -1338.646)"/></g><rect class="f" width="266" height="18" transform="translate(1746 1362.643)"/><rect class="f" width="341" height="18" transform="translate(1746 1650.643)"/><g class="b" transform="translate(1419.795 1058.438)"><path class="g" d="M0-444.669V-972" transform="translate(326.446 1117.674)"/></g><g class="b" transform="translate(1419.795 1058.438)"><text class="h" transform="translate(757.512 655.47)"><tspan x="0" y="0">45.83</tspan></text></g><g class="b" transform="translate(1419.795 1058.438)"><text class="h" transform="translate(681.803 607.186)"><tspan x="0" y="0">37.50</tspan></text></g><g class="b" transform="translate(1419.795 1058.438)"><text class="h" transform="translate(795.37 559.444)"><tspan x="0" y="0">50.00</tspan></text></g><g class="b" transform="translate(1419.795 1058.438)"><text class="h" transform="translate(1098.221 511.702)"><tspan x="0" y="0">83.33</tspan></text></g><g class="b" transform="translate(1419.795 1058.438)"><text class="h" transform="translate(795.37 463.418)"><tspan x="0" y="0">50.00</tspan></text></g><g class="b" transform="translate(1419.795 1058.438)"><text class="h" transform="translate(871.084 415.676)"><tspan x="0" y="0">58.33</tspan></text></g><g class="b" transform="translate(1419.795 1058.438)"><text class="h" transform="translate(719.661 367.934)"><tspan x="0" y="0">41.67</tspan></text></g><g class="b" transform="translate(1419.795 1058.438)"><text class="h" transform="translate(606.089 319.649)"><tspan x="0" y="0">29.17</tspan></text></g><g class="b" transform="translate(1419.795 1058.438)"><text class="h" transform="translate(908.941 271.908)"><tspan x="0" y="0">62.50</tspan></text></g><g class="b" transform="translate(1419.795 1058.438)"><text class="h" transform="translate(1098.221 224.166)"><tspan x="0" y="0">83.33</tspan></text></g><g class="b" transform="translate(1419.795 1058.438)"><text class="h" transform="translate(833.227 175.881)"><tspan x="0" y="0">54.17</tspan></text></g><g class="b" transform="translate(1419.795 1058.438)"><text class="i" transform="translate(304.398 704.297)"><tspan x="0" y="0">0.00</tspan></text></g><g class="b" transform="translate(1419.795 1058.438)"><text class="i" transform="translate(479.888 704.297)"><tspan x="0" y="0">20.00</tspan></text></g><g class="b" transform="translate(1419.795 1058.438)"><text class="i" transform="translate(661.6 704.297)"><tspan x="0" y="0">40.00</tspan></text></g><g class="b" transform="translate(1419.795 1058.438)"><text class="i" transform="translate(843.307 704.297)"><tspan x="0" y="0">60.00</tspan></text></g><g class="b" transform="translate(1419.795 1058.438)"><text class="i" transform="translate(1025.019 704.297)"><tspan x="0" y="0">80.00</tspan></text></g><g class="b" transform="translate(1419.795 1058.438)"><text class="i" transform="translate(1200.503 704.297)"><tspan x="0" y="0">100.00</tspan></text></g><g class="b" transform="translate(1419.795 1058.438)"><text class="i" transform="translate(126.581 653.843)"><tspan x="0" y="0">Willingness to use</tspan></text></g><g class="b" transform="translate(1419.795 1058.438)"><text class="i" transform="translate(209.956 606.101)"><tspan x="0" y="0">simplicity</tspan></text></g><g class="b" transform="translate(1419.795 1058.438)"><text class="i" transform="translate(192.487 557.816)"><tspan x="0" y="0">easy to use</tspan></text></g><g class="b" transform="translate(1419.795 1058.438)"><text class="i" transform="translate(145.206 510.074)"><tspan x="0" y="0">use with no help</tspan></text></g><g class="b" transform="translate(1419.795 1058.438)"><text class="i" transform="translate(106.649 462.333)"><tspan x="0" y="0">functions integration</tspan></text></g><g class="b" transform="translate(1419.795 1058.438)"><text class="i" transform="translate(190.013 414.048)"><tspan x="0" y="0">consistency</tspan></text></g><g class="b" transform="translate(1419.795 1058.438)"><text class="i" transform="translate(173.835 366.306)"><tspan x="0" y="0">quick to learn</tspan></text></g><g class="b" transform="translate(1419.795 1058.438)"><text class="i" transform="translate(55.723 318.564)"><tspan x="0" y="0">no cumbersome (intuitive)</tspan></text></g><g class="b" transform="translate(1419.795 1058.438)"><text class="i" transform="translate(148.933 270.28)"><tspan x="0" y="0">confident to use</tspan></text></g><g class="b" transform="translate(1419.795 1058.438)"><text class="i" transform="translate(17.122 222.538)"><tspan x="0" y="0">start without extra knowledge</tspan></text></g><g class="b" transform="translate(1419.795 1058.438)"><text class="i" transform="translate(226.069 174.796)"><tspan x="0" y="0">average</tspan></text></g><g class="b" transform="translate(1419.795 1058.438)"><text class="j" transform="translate(620.053 740.391)"><tspan x="0" y="0">score</tspan></text></g><g class="b" transform="translate(1419.795 1058.438)"><text class="k" transform="translate(519.896 90.77)"><tspan x="0" y="0">Original Site SUS</tspan></text></g></g></svg>