<svg xmlns="http://www.w3.org/2000/svg" xmlns:xlink="http://www.w3.org/1999/xlink" width="1920" height="1080" viewBox="0 0 1920 1080"><defs><style>.a{clip-path:url(#b);}.b,.f{fill:#4e6863;}.b{font-size:32px;}.b,.c,.f{font-family:NotoSansSC-Black, Noto Sans SC;font-weight:800;}.c{font-size:24px;}.d{font-size:16px;font-family:NotoSansSC-Regular, Noto Sans SC;}.e{font-size:20px;font-family:NotoSansSC-Bold, Noto Sans SC;font-weight:700;}.f{font-size:80px;}.g{fill:none;stroke:#e7e7e7;stroke-linejoin:round;stroke-width:24px;}.h{fill:#fff;}</style><clipPath id="b"><rect width="1920" height="1080"/></clipPath></defs><g id="a" class="a"><rect class="h" width="1920" height="1080"/><text class="b" transform="translate(1500 256)"><tspan x="0" y="37">Current Site </tspan><tspan x="0" y="84">Usability Evaluation</tspan></text><text class="b" transform="translate(1050 256)"><tspan x="0" y="37">Problem </tspan><tspan x="0" y="84">Convergence</tspan></text><text class="b" transform="translate(600 256)"><tspan x="0" y="37">Result Analysis</tspan></text><g transform="translate(150 404)"><text class="c"><tspan x="0" y="28">Goal</tspan></text><g transform="translate(0 33)"><g transform="translate(0 112)"><text class="d" transform="translate(0 33)"><tspan x="0" y="19">Learn who are the users and why they </tspan><tspan x="0" y="43">come to The Anti-Cruelty Society.</tspan></text><text class="e"><tspan x="0" y="23">Learn Users&apos; Mental Model</tspan></text></g><text class="d" transform="translate(0 33)"><tspan x="0" y="19">Get familiar with the site and find common </tspan><tspan x="0" y="43">problems at the same time by performing </tspan><tspan x="0" y="67">Heuristic Evaluation.</tspan></text><text class="e"><tspan x="0" y="23">Get Familiar with the Website</tspan></text></g></g><g transform="translate(1050 404)"><text class="c"><tspan x="0" y="28">Achievements</tspan></text><g transform="translate(0 36)"><g transform="translate(0 162)"><text class="d" transform="translate(0 33)"><tspan x="0" y="19">Define study scope so that we can put our </tspan><tspan x="0" y="43">focus on where they should be. </tspan></text><text class="e"><tspan x="0" y="23">Design Scope Determination</tspan></text></g><g transform="translate(0 69)"><text class="d" transform="translate(0 33)"><tspan x="0" y="19">Come up with assumptions to drive the </tspan><tspan x="0" y="43">rest of our study </tspan></text><text class="e"><tspan x="0" y="23">Assumption Formation</tspan></text></g><text class="d" transform="translate(0 33)"><tspan x="0" y="19">Finalize target users </tspan></text><text class="e"><tspan x="0" y="23">Target User Definition </tspan></text></g></g><g transform="translate(1500 404)"><text class="c"><tspan x="0" y="28">Goal</tspan></text><g transform="translate(0 33)"><g transform="translate(0 210)"><text class="d" transform="translate(0 33)"><tspan x="0" y="19">Set a bench mark for our solution </tspan><tspan x="0" y="43">prototype</tspan></text><text class="e"><tspan x="0" y="23">Set Evaluation Bench Mark</tspan></text></g><g transform="translate(0 88)"><text class="d" transform="translate(0 62)"><tspan x="0" y="19">Find more design flaws from users&apos; </tspan><tspan x="0" y="43">perspective</tspan></text><text class="e"><tspan x="0" y="23">Problems From Users&apos; </tspan><tspan x="0" y="52">Perspective </tspan></text></g><text class="d" transform="translate(0 33)"><tspan x="0" y="19">Confirm Our assumption in the previous </tspan><tspan x="0" y="43">study.</tspan></text><text class="e"><tspan x="0" y="23">Assumption Confirmation</tspan></text></g></g><g transform="translate(600 404)"><text class="c"><tspan x="0" y="28">Goal</tspan></text><g transform="translate(0 33)"><text class="d" transform="translate(0 33)"><tspan x="0" y="19">Define who are the users, why do they </tspan><tspan x="0" y="43">want to adopt a pet, and what&apos;s their goal </tspan><tspan x="0" y="67">in pet adoption.</tspan></text><text class="e"><tspan x="0" y="23">Understand the problem space</tspan></text></g></g><g transform="translate(150 665)"><text class="c"><tspan x="0" y="28">Methods &amp; Sub-goal</tspan></text><g transform="translate(0 33)"><g transform="translate(0 214)"><text class="d" transform="translate(0 33)"><tspan x="0" y="19">Learn The Anti-Cruelty Society and their </tspan><tspan x="0" y="43">website. </tspan></text><text class="e"><tspan x="0" y="23">Staff Interview</tspan></text></g><g transform="translate(0 117)"><text class="d" transform="translate(0 33)"><tspan x="0" y="19">Collect data of user experience in pet </tspan><tspan x="0" y="43">adoption </tspan></text><text class="e"><tspan x="0" y="23">Target User Interview</tspan></text></g><text class="d" transform="translate(0 33)"><tspan x="0" y="19">Have basic understanding of the target </tspan><tspan x="0" y="43">domain and set priorities for common </tspan><tspan x="0" y="67">issues</tspan></text><text class="e"><tspan x="0" y="23">Heuristic Evaluation</tspan></text></g></g><g transform="translate(600 577)"><text class="c"><tspan x="0" y="28">Methods</tspan></text><g transform="translate(0 33)"><g transform="translate(0 214)"><text class="d" transform="translate(0 33)"><tspan x="0" y="19">Define our users using spectrum grouping </tspan><tspan x="0" y="43">method</tspan></text><text class="e"><tspan x="0" y="23">Persona Spectrum Grouping</tspan></text></g><g transform="translate(0 117)"><text class="d" transform="translate(0 33)"><tspan x="0" y="19">Organize data and have the basic theme </tspan><tspan x="0" y="43">definition</tspan></text><text class="e"><tspan x="0" y="23">Affinity Diagram</tspan></text></g><text class="d" transform="translate(0 33)"><tspan x="0" y="19">Have basic understanding of the target </tspan><tspan x="0" y="43" xml:space="preserve">domain and set priorities for some of the  </tspan><tspan x="0" y="67">common issues</tspan></text><text class="e"><tspan x="0" y="23">Script Coding</tspan></text></g></g><g transform="translate(1500 763)"><text class="c"><tspan x="0" y="28">Methods &amp; Sub-goal</tspan></text><g transform="translate(0 33)"><g transform="translate(0 136)"><text class="d" transform="translate(0 33)"><tspan x="0" y="19">A standard effectiveness, efficiency and </tspan><tspan x="0" y="43">satisfaction scale of system for later </tspan><tspan x="0" y="67">comparison</tspan></text><text class="e"><tspan x="0" y="23">System Usability Scale (SUS)</tspan></text></g><text class="d" transform="translate(0 33)"><tspan x="0" y="19">Calculate success and Intervention rate of </tspan><tspan x="0" y="43">key tasks. Log users actions and our </tspan><tspan x="0" y="67">comments for later analysis and </tspan><tspan x="0" y="91">comparison.</tspan></text><text class="e"><tspan x="0" y="23">Usability Test</tspan></text></g></g><text class="b" transform="translate(150 256)"><tspan x="0" y="37">User Research</tspan></text><text class="f" transform="translate(150 191)"><tspan x="0" y="0">01</tspan></text><text class="f" transform="translate(600 191)"><tspan x="0" y="0">02</tspan></text><text class="f" transform="translate(1050 191)"><tspan x="0" y="0">03</tspan></text><text class="f" transform="translate(1500 191)"><tspan x="0" y="0">04</tspan></text><path class="g" d="M0,0,38.592,38.592,0,77.185" transform="translate(440.5 173.965)"/><path class="g" d="M0,0,38.592,38.592,0,77.185" transform="translate(899.5 173.965)"/><path class="g" d="M0,0,38.592,38.592,0,77.185" transform="translate(1356.7 173.965)"/></g></svg>