<svg xmlns="http://www.w3.org/2000/svg" xmlns:xlink="http://www.w3.org/1999/xlink" width="1296" height="777" viewBox="0 0 1296 777"><defs><style>.a{clip-path:url(#a);}.b{fill:#fff;}.c{clip-path:url(#b);}.d,.g{fill:none;stroke:#d9d9d9;stroke-linejoin:round;stroke-miterlimit:10;stroke-width:3.438px;}.e{clip-path:url(#c);}.f{fill:#487c72;}.g{fill-rule:evenodd;}.h{fill:#404040;}.h,.i{font-size:20px;}.h,.i,.j,.k,.l{font-family:ArialMT, Arial;}.i,.j,.k,.l{fill:#595959;}.j{font-size:24px;}.k{font-size:33px;}.l{font-size:34px;}</style><clipPath id="a"><rect width="1296" height="777" transform="translate(2058.429 1162.8)"/></clipPath><clipPath id="b"><rect width="1295" height="777" transform="translate(0 -0.009)"/></clipPath><clipPath id="c"><rect width="885" height="571" transform="translate(0.28 0.183)"/></clipPath></defs><g class="a" transform="translate(-2058.429 -1162.801)"><rect class="b" width="1296" height="777" transform="translate(2058.429 1162.8)"/><g class="c" transform="translate(2058.429 1161.811)"><path class="d" d="M2962.6,1328.5v569.159M3139.2,1328.5v569.159M3315.8,1328.5v569.159m177.18-569.159v569.159M3669.5,1328.5v569.159" transform="translate(-2439.221 -1231.482)"/></g><g class="e" transform="translate(2405.149 1258.618)"><path class="f" d="M3320.448,1892.635H2658v-17.949h662.448Zm184.128-51.531H2658v-18.528h846.577Zm0-51.531H2658v-18.528h846.577Zm0-52.11H2658v-17.949h846.577Zm-73.533-51.537H2658V1667.4h773.043Zm36.477-51.531H2658v-18.528h809.521Zm-36.477-52.11H2658v-18.528h773.043Zm36.477-51.537H2658v-18.528h809.521Zm37.056-52.11H2658v-17.949h846.577Zm-147.646-51.531H2658v-18.528h698.931Zm92.062-51.531H2658V1357.04h790.992Z" transform="translate(-2657.705 -1340.304)"/></g><g class="c" transform="translate(2058.429 1161.811)"><path class="g" d="M0-413.841V-983" transform="translate(346.726 1080.018)"/></g><g class="c" transform="translate(2058.429 1161.811)"><text class="h" transform="translate(1025.287 645.674)"><tspan x="0" y="0">75.00</tspan></text></g><g class="c" transform="translate(2058.429 1161.811)"><text class="h" transform="translate(1209.329 593.563)"><tspan x="0" y="0">95.83</tspan></text></g><g class="c" transform="translate(2058.429 1161.811)"><text class="h" transform="translate(1209.329 542.032)"><tspan x="0" y="0">95.83</tspan></text></g><g class="c" transform="translate(2058.429 1161.811)"><text class="h" transform="translate(1209.329 490.501)"><tspan x="0" y="0">95.83</tspan></text></g><g class="c" transform="translate(2058.429 1161.811)"><text class="h" transform="translate(1135.709 438.391)"><tspan x="0" y="0">87.50</tspan></text></g><g class="c" transform="translate(2058.429 1161.811)"><text class="h" transform="translate(1172.522 386.86)"><tspan x="0" y="0">91.67</tspan></text></g><g class="c" transform="translate(2058.429 1161.811)"><text class="h" transform="translate(1135.709 335.328)"><tspan x="0" y="0">87.50</tspan></text></g><g class="c" transform="translate(2058.429 1161.811)"><text class="h" transform="translate(1172.522 283.218)"><tspan x="0" y="0">91.67</tspan></text></g><g class="c" transform="translate(2058.429 1161.811)"><text class="h" transform="translate(1209.329 231.687)"><tspan x="0" y="0">95.83</tspan></text></g><g class="c" transform="translate(2058.429 1161.811)"><text class="h" transform="translate(1062.095 180.156)"><tspan x="0" y="0">79.17</tspan></text></g><g class="c" transform="translate(2058.429 1161.811)"><text class="h" transform="translate(1154.115 128.046)"><tspan x="0" y="0">89.58</tspan></text></g><g class="c" transform="translate(2058.429 1161.811)"><text class="i" transform="translate(323.577 698.363)"><tspan x="0" y="0">0.00</tspan></text></g><g class="c" transform="translate(2058.429 1161.811)"><text class="i" transform="translate(493.613 698.363)"><tspan x="0" y="0">20.00</tspan></text></g><g class="c" transform="translate(2058.429 1161.811)"><text class="i" transform="translate(670.295 698.363)"><tspan x="0" y="0">40.00</tspan></text></g><g class="c" transform="translate(2058.429 1161.811)"><text class="i" transform="translate(846.972 698.363)"><tspan x="0" y="0">60.00</tspan></text></g><g class="c" transform="translate(2058.429 1161.811)"><text class="i" transform="translate(1023.655 698.363)"><tspan x="0" y="0">80.00</tspan></text></g><g class="c" transform="translate(2058.429 1161.811)"><text class="i" transform="translate(1193.69 698.363)"><tspan x="0" y="0">100.00</tspan></text></g><g class="c" transform="translate(2058.429 1161.811)"><text class="i" transform="translate(133.797 643.937)"><tspan x="0" y="0">Willingness to use</tspan></text></g><g class="c" transform="translate(2058.429 1161.811)"><text class="i" transform="translate(222.779 592.405)"><tspan x="0" y="0">simplicity</tspan></text></g><g class="c" transform="translate(2058.429 1161.811)"><text class="i" transform="translate(204.14 540.874)"><tspan x="0" y="0">easy to use</tspan></text></g><g class="c" transform="translate(2058.429 1161.811)"><text class="i" transform="translate(153.675 488.764)"><tspan x="0" y="0">use with no help</tspan></text></g><g class="c" transform="translate(2058.429 1161.811)"><text class="i" transform="translate(112.531 437.233)"><tspan x="0" y="0">functions integration</tspan></text></g><g class="c" transform="translate(2058.429 1161.811)"><text class="i" transform="translate(201.5 385.123)"><tspan x="0" y="0">consistency</tspan></text></g><g class="c" transform="translate(2058.429 1161.811)"><text class="i" transform="translate(184.234 333.591)"><tspan x="0" y="0">quick to learn</tspan></text></g><g class="c" transform="translate(2058.429 1161.811)"><text class="i" transform="translate(58.18 282.06)"><tspan x="0" y="0">no cumbersome(intuitive)</tspan></text></g><g class="c" transform="translate(2058.429 1161.811)"><text class="i" transform="translate(157.658 229.95)"><tspan x="0" y="0">confident to use</tspan></text></g><g class="c" transform="translate(2058.429 1161.811)"><text class="i" transform="translate(16.978 178.419)"><tspan x="0" y="0">start without extra knowledge</tspan></text></g><g class="c" transform="translate(2058.429 1161.811)"><text class="i" transform="translate(239.975 126.888)"><tspan x="0" y="0">average</tspan></text></g><g class="c" transform="translate(2058.429 1161.811)"><text class="j" transform="translate(756.074 737.682)"><tspan x="0" y="0">score</tspan></text></g><g class="c" transform="translate(2058.429 1161.811)"><text class="k" transform="translate(525.991 52.037)"><tspan x="0" y="0">R</tspan></text></g><g class="c" transform="translate(2058.429 1161.811)"><text class="l" transform="translate(552.816 53.037)"><tspan x="0" y="0">edesign SUS</tspan></text></g></g></svg>