<svg xmlns="http://www.w3.org/2000/svg" width="1217" height="378" viewBox="0 0 1217 378"><g transform="translate(-205 -23244)"><g transform="translate(363.94 23243.52)"><g transform="translate(452.06 0.48)" fill="#fff" stroke="#707070" stroke-width="4"><rect width="112" height="41" rx="8" stroke="none"/><rect x="2" y="2" width="108" height="37" rx="6" fill="none"/></g><g transform="translate(235.06 93.48)"><g transform="translate(0 0)" fill="#dfdfdf" stroke="#707070" stroke-width="4"><rect width="41" height="27" rx="8" stroke="none"/><rect x="2" y="2" width="37" height="23" rx="6" fill="none"/></g></g><g transform="translate(150.06 165.48)"><g transform="translate(0 0)" fill="#dfdfdf" stroke="#707070" stroke-width="4"><rect width="41" height="27" rx="8" stroke="none"/><rect x="2" y="2" width="37" height="23" rx="6" fill="none"/></g></g><g transform="translate(0.06 283.48)"><g transform="translate(0 0)" fill="none" stroke="#707070" stroke-width="4"><rect width="41" height="27" rx="8" stroke="none"/><rect x="2" y="2" width="37" height="23" rx="6" fill="none"/></g></g><g transform="translate(824.06 283.48)"><g transform="translate(0 0)" fill="none" stroke="#707070" stroke-width="4"><rect width="41" height="27" rx="8" stroke="none"/><rect x="2" y="2" width="37" height="23" rx="6" fill="none"/></g></g><g transform="translate(75.06 224.48)"><g transform="translate(0 0)" fill="none" stroke="#707070" stroke-width="4"><rect width="41" height="27" rx="8" stroke="none"/><rect x="2" y="2" width="37" height="23" rx="6" fill="none"/></g></g><g transform="translate(749.06 224.48)"><g transform="translate(0 0)" fill="none" stroke="#707070" stroke-width="4"><rect width="41" height="27" rx="8" stroke="none"/><rect x="2" y="2" width="37" height="23" rx="6" fill="none"/></g></g><g transform="translate(150.06 283.48)"><g transform="translate(0 0)" fill="none" stroke="#707070" stroke-width="4"><rect width="41" height="27" rx="8" stroke="none"/><rect x="2" y="2" width="37" height="23" rx="6" fill="none"/></g></g><g transform="translate(975.06 283.48)"><g transform="translate(0 0)" fill="none" stroke="#707070" stroke-width="4"><rect width="41" height="27" rx="8" stroke="none"/><rect x="2" y="2" width="37" height="23" rx="6" fill="none"/></g></g><g transform="translate(226.06 224.48)"><g transform="translate(0 0)" fill="none" stroke="#707070" stroke-width="4"><rect width="41" height="27" rx="8" stroke="none"/><rect x="2" y="2" width="37" height="23" rx="6" fill="none"/></g></g><g transform="translate(259.06 283.48)"><g transform="translate(0 0)" fill="none" stroke="#707070" stroke-width="4" stroke-dasharray="8"><rect width="41" height="27" rx="8" stroke="none"/><rect x="2" y="2" width="37" height="23" rx="6" fill="none"/></g></g><g transform="translate(446.06 283.48)"><g transform="translate(0 0)" fill="none" stroke="#707070" stroke-width="4" stroke-dasharray="8"><rect width="41" height="27" rx="8" stroke="none"/><rect x="2" y="2" width="37" height="23" rx="6" fill="none"/></g></g><g transform="translate(340.06 224.48)"><g transform="translate(0 0)" fill="none" stroke="#707070" stroke-width="4" stroke-dasharray="8"><rect width="41" height="27" rx="8" stroke="none"/><rect x="2" y="2" width="37" height="23" rx="6" fill="none"/></g></g><g transform="translate(446.06 165.48)"><g transform="translate(0 0)" fill="#dfdfdf" stroke="#707070" stroke-width="4" stroke-dasharray="8"><rect width="41" height="27" rx="8" stroke="none"/><rect x="2" y="2" width="37" height="23" rx="6" fill="none"/></g></g><g transform="translate(343.06 283.48)"><g transform="translate(0 0)" fill="none" stroke="#707070" stroke-width="4" stroke-dasharray="8"><rect width="41" height="27" rx="8" stroke="none"/><rect x="2" y="2" width="37" height="23" rx="6" fill="none"/></g></g><g transform="translate(529.06 283.48)"><g transform="translate(0 0)" fill="none" stroke="#707070" stroke-width="4" stroke-dasharray="8"><rect width="41" height="27" rx="8" stroke="none"/><rect x="2" y="2" width="37" height="23" rx="6" fill="none"/></g></g><g transform="translate(424.06 224.48)"><g transform="translate(0 0)" fill="none" stroke="#707070" stroke-width="4" stroke-dasharray="8"><rect width="41" height="27" rx="8" stroke="none"/><rect x="2" y="2" width="37" height="23" rx="6" fill="none"/></g></g><g transform="translate(529.06 165.48)"><g transform="translate(0 0)" fill="#dfdfdf" stroke="#707070" stroke-width="4" stroke-dasharray="8"><rect width="41" height="27" rx="8" stroke="none"/><rect x="2" y="2" width="37" height="23" rx="6" fill="none"/></g></g><g transform="translate(628.06 283.48)"><g transform="translate(0 0)" fill="none" stroke="#707070" stroke-width="4" stroke-dasharray="8"><rect width="41" height="27" rx="8" stroke="none"/><rect x="2" y="2" width="37" height="23" rx="6" fill="none"/></g></g><g transform="translate(552.06 224.48)"><g transform="translate(0 0)" fill="none" stroke="#707070" stroke-width="4" stroke-dasharray="8"><rect width="41" height="27" rx="8" stroke="none"/><rect x="2" y="2" width="37" height="23" rx="6" fill="none"/></g></g><g transform="translate(710.06 283.48)"><g transform="translate(0 0)" fill="none" stroke="#707070" stroke-width="4" stroke-dasharray="8"><rect width="41" height="27" rx="8" stroke="none"/><rect x="2" y="2" width="37" height="23" rx="6" fill="none"/></g></g><g transform="translate(634.06 224.48)"><g transform="translate(0 0)" fill="none" stroke="#707070" stroke-width="4" stroke-dasharray="8"><rect width="41" height="27" rx="8" stroke="none"/><rect x="2" y="2" width="37" height="23" rx="6" fill="none"/></g></g><g transform="translate(900.06 224.48)"><g transform="translate(0 0)" fill="none" stroke="#707070" stroke-width="4"><rect width="41" height="27" rx="8" stroke="none"/><rect x="2" y="2" width="37" height="23" rx="6" fill="none"/></g></g><g transform="translate(321.06 165.48)"><g transform="translate(0 0)" fill="#dfdfdf" stroke="#707070" stroke-width="4"><rect width="41" height="27" rx="8" stroke="none"/><rect x="2" y="2" width="37" height="23" rx="6" fill="none"/></g></g><g transform="translate(653.06 165.48)"><g transform="translate(0 0)" fill="#dfdfdf" stroke="#707070" stroke-width="4"><rect width="41" height="27" rx="8" stroke="none"/><rect x="2" y="2" width="37" height="23" rx="6" fill="none"/></g></g><g transform="translate(823.06 165.48)"><g transform="translate(0 0)" fill="#dfdfdf" stroke="#707070" stroke-width="4"><rect width="41" height="27" rx="8" stroke="none"/><rect x="2" y="2" width="37" height="23" rx="6" fill="none"/></g></g><g transform="translate(319.06 93.48)"><g transform="translate(0 0)" fill="#dfdfdf" stroke="#707070" stroke-width="4"><rect width="41" height="27" rx="8" stroke="none"/><rect x="2" y="2" width="37" height="23" rx="6" fill="none"/></g></g><g transform="translate(403.06 93.48)"><g transform="translate(0 0)" fill="#dfdfdf" stroke="#707070" stroke-width="4"><rect width="41" height="27" rx="8" stroke="none"/><rect x="2" y="2" width="37" height="23" rx="6" fill="none"/></g></g><g transform="translate(487.06 93.48)"><g transform="translate(0 0)" fill="#dfdfdf" stroke="#707070" stroke-width="4"><rect width="41" height="27" rx="8" stroke="none"/><rect x="2" y="2" width="37" height="23" rx="6" fill="none"/></g></g><g transform="translate(571.06 93.48)"><g transform="translate(0 0)" fill="#dfdfdf" stroke="#707070" stroke-width="4"><rect width="41" height="27" rx="8" stroke="none"/><rect x="2" y="2" width="37" height="23" rx="6" fill="none"/></g></g><g transform="translate(655.06 93.48)"><g transform="translate(0 0)" fill="#dfdfdf" stroke="#707070" stroke-width="4"><rect width="41" height="27" rx="8" stroke="none"/><rect x="2" y="2" width="37" height="23" rx="6" fill="none"/></g></g><g transform="translate(739.06 93.48)"><g transform="translate(0 0)" fill="#dfdfdf" stroke="#707070" stroke-width="4"><rect width="41" height="27" rx="8" stroke="none"/><rect x="2" y="2" width="37" height="23" rx="6" fill="none"/></g></g><path d="M2580,1429v52.174" transform="translate(-2071.94 -1387.945)" fill="none" stroke="#707070" stroke-width="2"/><path d="M2309,1486.084v-23.148h503.783v23.148" transform="translate(-2053.26 -1392.855)" fill="none" stroke="#707070" stroke-width="2"/><path d="M2197.8,1578.056V1560.65h170.508v17.406" transform="translate(-2026.907 -1412.979)" fill="none" stroke="#707070" stroke-width="2"/><path d="M2197.8,1578.056V1560.65h170.508v17.406" transform="translate(-1523.98 -1412.979)" fill="none" stroke="#707070" stroke-width="2"/><path d="M2309,1538v27.071" transform="translate(-2053.26 -1417.4)" fill="none" stroke="#707070" stroke-width="2"/><path d="M2309,1538v11.846" transform="translate(-1968.583 -1417.4)" fill="none" stroke="#707070" stroke-width="2" stroke-dasharray="4"/><path d="M2309,1538v11.846" transform="translate(-1885.617 -1417.4)" fill="none" stroke="#707070" stroke-width="2" stroke-dasharray="4"/><path d="M2309,1538v11.846" transform="translate(-1800.94 -1417.4)" fill="none" stroke="#707070" stroke-width="2" stroke-dasharray="4"/><path d="M2309,1538v11.846" transform="translate(-1717.974 -1417.4)" fill="none" stroke="#707070" stroke-width="2" stroke-dasharray="4"/><path d="M2309,1538v11.846" transform="translate(-1635.009 -1417.4)" fill="none" stroke="#707070" stroke-width="2" stroke-dasharray="4"/><path d="M2309,1538v27.071" transform="translate(-1550.332 -1417.4)" fill="none" stroke="#707070" stroke-width="2"/><path d="M2122,1672.056V1654.65h150.536v17.406" transform="translate(-2101.472 -1388.945)" fill="none" stroke="#707070" stroke-width="2"/><path d="M2122,1672.056V1654.65h150.536v17.406" transform="translate(-1276.945 -1388.945)" fill="none" stroke="#707070" stroke-width="2"/><path d="M2122,1672.056V1654.65h150.536v17.406" transform="translate(-2026.204 -1447.962)" fill="none" stroke="#707070" stroke-width="2"/><path d="M2122,1672.056V1654.65h85.1v17.406" transform="translate(-1842.311 -1388.945)" fill="none" stroke="#707070" stroke-width="2"/><path d="M2122,1672.056V1654.65h85.1v17.406" transform="translate(-1655.851 -1388.945)" fill="none" stroke="#707070" stroke-width="2"/><path d="M2122,1672.056V1654.65h85.1v17.406" transform="translate(-1761.055 -1447.962)" fill="none" stroke="#707070" stroke-width="2"/><path d="M2122,1672.056V1654.65h85.1v17.406" transform="translate(-1655.851 -1506.979)" fill="none" stroke="#707070" stroke-width="2"/><path d="M2122,1672.056V1654.65h85.1v17.406" transform="translate(-1476.234 -1388.945)" fill="none" stroke="#707070" stroke-width="2"/><path d="M2122,1672.056V1654.65h85.1v17.406" transform="translate(-1552.357 -1447.962)" fill="none" stroke="#707070" stroke-width="2"/><path d="M2122,1672.056V1654.65h150.536v17.406" transform="translate(-1353.923 -1447.962)" fill="none" stroke="#707070" stroke-width="2"/><path d="M2209.8,1638v14.241" transform="translate(-2114.175 -1386.536)" fill="none" stroke="#707070" stroke-width="2"/><path d="M2209.8,1638v14.241" transform="translate(-1289.648 -1386.536)" fill="none" stroke="#707070" stroke-width="2"/><path d="M2209.8,1638v14.241" transform="translate(-2038.907 -1445.553)" fill="none" stroke="#707070" stroke-width="2"/><path d="M2209.8,1638v14.241" transform="translate(-1366.626 -1445.553)" fill="none" stroke="#707070" stroke-width="2"/><g transform="translate(79.06 294.48)"><circle cx="2.5" cy="2.5" r="2.5" transform="translate(0 0)" fill="#727272"/><circle cx="2.5" cy="2.5" r="2.5" transform="translate(27 0)" fill="#727272"/><circle cx="2.5" cy="2.5" r="2.5" transform="translate(13 0)" fill="#727272"/></g><g transform="translate(904.06 294.48)"><circle cx="2.5" cy="2.5" r="2.5" transform="translate(0 0)" fill="#727272"/><circle cx="2.5" cy="2.5" r="2.5" transform="translate(27 0)" fill="#727272"/><circle cx="2.5" cy="2.5" r="2.5" transform="translate(13 0)" fill="#727272"/></g><g transform="translate(155.06 235.48)"><circle cx="2.5" cy="2.5" r="2.5" transform="translate(0 0)" fill="#727272"/><circle cx="2.5" cy="2.5" r="2.5" transform="translate(27 0)" fill="#727272"/><circle cx="2.5" cy="2.5" r="2.5" transform="translate(13 0)" fill="#727272"/></g><g transform="translate(240.06 176.48)"><circle cx="2.5" cy="2.5" r="2.5" transform="translate(0 0)" fill="#727272"/><circle cx="2.5" cy="2.5" r="2.5" transform="translate(27 0)" fill="#727272"/><circle cx="2.5" cy="2.5" r="2.5" transform="translate(13 0)" fill="#727272"/></g><g transform="translate(599.06 176.48)"><circle cx="2.5" cy="2.5" r="2.5" transform="translate(0 0)" fill="#727272"/><circle cx="2.5" cy="2.5" r="2.5" transform="translate(27 0)" fill="#727272"/><circle cx="2.5" cy="2.5" r="2.5" transform="translate(13 0)" fill="#727272"/></g><g transform="translate(390.06 176.48)"><circle cx="2.5" cy="2.5" r="2.5" transform="translate(0 0)" fill="#727272"/><circle cx="2.5" cy="2.5" r="2.5" transform="translate(27 0)" fill="#727272"/><circle cx="2.5" cy="2.5" r="2.5" transform="translate(13 0)" fill="#727272"/></g><g transform="translate(404.06 294.48)"><circle cx="2.5" cy="2.5" r="2.5" transform="translate(0 0)" fill="#727272"/><circle cx="2.5" cy="2.5" r="2.5" transform="translate(27 0)" fill="#727272"/><circle cx="2.5" cy="2.5" r="2.5" transform="translate(13 0)" fill="#727272"/></g><g transform="translate(581.06 294.48)"><circle cx="2.5" cy="2.5" r="2.5" transform="translate(0 0)" fill="#727272"/><circle cx="2.5" cy="2.5" r="2.5" transform="translate(27 0)" fill="#727272"/><circle cx="2.5" cy="2.5" r="2.5" transform="translate(13 0)" fill="#727272"/></g><g transform="translate(492.06 235.48)"><circle cx="2.5" cy="2.5" r="2.5" transform="translate(0 0)" fill="#727272"/><circle cx="2.5" cy="2.5" r="2.5" transform="translate(27 0)" fill="#727272"/><circle cx="2.5" cy="2.5" r="2.5" transform="translate(13 0)" fill="#727272"/></g><g transform="translate(765.06 294.48)"><circle cx="2.5" cy="2.5" r="2.5" transform="translate(0 0)" fill="#727272"/><circle cx="2.5" cy="2.5" r="2.5" transform="translate(27 0)" fill="#727272"/><circle cx="2.5" cy="2.5" r="2.5" transform="translate(13 0)" fill="#727272"/></g><g transform="translate(694.06 235.48)"><circle cx="2.5" cy="2.5" r="2.5" transform="translate(0 0)" fill="#727272"/><circle cx="2.5" cy="2.5" r="2.5" transform="translate(27 0)" fill="#727272"/><circle cx="2.5" cy="2.5" r="2.5" transform="translate(13 0)" fill="#727272"/></g><g transform="translate(212.06 294.48)"><circle cx="2.5" cy="2.5" r="2.5" transform="translate(0 0)" fill="#727272"/><circle cx="2.5" cy="2.5" r="2.5" transform="translate(27 0)" fill="#727272"/><circle cx="2.5" cy="2.5" r="2.5" transform="translate(13 0)" fill="#727272"/></g><g transform="translate(289.06 235.48)"><circle cx="2.5" cy="2.5" r="2.5" transform="translate(0 0)" fill="#727272"/><circle cx="2.5" cy="2.5" r="2.5" transform="translate(27 0)" fill="#727272"/><circle cx="2.5" cy="2.5" r="2.5" transform="translate(13 0)" fill="#727272"/></g><g transform="translate(743.06 176.48)"><circle cx="2.5" cy="2.5" r="2.5" transform="translate(0 0)" fill="#727272"/><circle cx="2.5" cy="2.5" r="2.5" transform="translate(27 0)" fill="#727272"/><circle cx="2.5" cy="2.5" r="2.5" transform="translate(13 0)" fill="#727272"/></g><g transform="translate(829.06 235.48)"><circle cx="2.5" cy="2.5" r="2.5" transform="translate(0 0)" fill="#727272"/><circle cx="2.5" cy="2.5" r="2.5" transform="translate(27 0)" fill="#727272"/><circle cx="2.5" cy="2.5" r="2.5" transform="translate(13 0)" fill="#727272"/></g><path d="M2309,1486.084v-23.148h332.719v23.148" transform="translate(-1967.728 -1392.855)" fill="none" stroke="#707070" stroke-width="2"/><path d="M2309,1486.084v-23.148h168.5v23.148" transform="translate(-1885.617 -1392.855)" fill="none" stroke="#707070" stroke-width="2"/><text transform="translate(478.06 29.48)" fill="#707070" font-size="20" font-family="NotoSansSC-Bold, Noto Sans SC" font-weight="700"><tspan x="0" y="0">HOME</tspan></text></g><text transform="translate(219 23356)" fill="#707070" font-size="24" font-family="NotoSansSC-Bold, Noto Sans SC" font-weight="700"><tspan x="0" y="0">Level 1</tspan></text><text transform="translate(219 23419)" fill="#707070" font-size="24" font-family="NotoSansSC-Bold, Noto Sans SC" font-weight="700"><tspan x="0" y="0">Level 2</tspan></text><text transform="translate(219 23483)" fill="#707070" font-size="24" font-family="NotoSansSC-Bold, Noto Sans SC" font-weight="700"><tspan x="0" y="0">Level 3</tspan></text><text transform="translate(219 23546)" fill="#707070" font-size="24" font-family="NotoSansSC-Bold, Noto Sans SC" font-weight="700"><tspan x="0" y="0">Level 4</tspan></text><g transform="translate(205 23294)" fill="none" stroke="#707070" stroke-width="2" stroke-dasharray="12"><rect width="1217" height="151" stroke="none"/><rect x="1" y="1" width="1215" height="149" fill="none"/></g><text transform="translate(759 23614)" font-size="24" font-family="NotoSansSC-Regular, Noto Sans SC"><tspan x="0" y="0" xml:space="preserve"> Simplified structure</tspan></text></g></svg>