<svg xmlns="http://www.w3.org/2000/svg" width="937" height="629" viewBox="0 0 937 629"><defs><style>.a,.f{font-size:12px;}.a,.d{font-family:SegoeUI, Segoe UI;}.b{fill:#f1f1f1;}.c,.k{fill:#ac8f5c;}.c{opacity:0.5;}.d{font-size:17px;}.e{fill:#4e6863;}.f{fill:#fff;font-family:NotoSansSC-Bold, Noto Sans SC;font-weight:700;}.g,.h,.i,.l,.n{fill:none;}.g{stroke:#b05641;}.g,.h{stroke-width:2px;}.g,.h,.i{stroke-dasharray:4;}.h{stroke:#ac8f5c;}.j{font-size:24px;font-family:NotoSansSC-Black, Noto Sans SC;font-weight:800;}.k{font-size:16px;font-family:NotoSansSC-Regular, Noto Sans SC;}.l{stroke:#c4c4c4;stroke-width:12px;}.m,.o{stroke:none;}.o{fill:#b05641;}</style></defs><g transform="translate(-789 -14519)"><g transform="translate(570)"><g transform="translate(96 13807)"><g transform="translate(0 68)"><text class="a" transform="translate(670 1270)"><tspan x="0" y="0">0%</tspan></text><text class="a" transform="translate(1030 1270)"><tspan x="0" y="0">100%</tspan></text><text class="a" transform="translate(846 1270)"><tspan x="0" y="0">50%</tspan></text><text class="a" transform="translate(753 1270)"><tspan x="0" y="0">25%</tspan></text><text class="a" transform="translate(938 1270)"><tspan x="0" y="0">75%</tspan></text><rect class="b" width="360" height="8" transform="translate(670 1243)"/><g transform="translate(0 284)"><rect class="c" width="3" height="8" transform="translate(670 959)"/><rect class="c" width="3" height="8" transform="translate(753 959)"/><rect class="c" width="3" height="8" transform="translate(846 959)"/><rect class="c" width="3" height="8" transform="translate(939 959)"/><rect class="c" width="3" height="8" transform="translate(1030 959)"/></g><text class="d" transform="translate(670 1227)"><tspan x="0" y="0">Effort of Seeking</tspan></text><g transform="translate(726 1238)"><circle class="e" cx="9.5" cy="9.5" r="9.5"/><text class="f" transform="translate(6 14)"><tspan x="0" y="0">1</tspan></text></g><g transform="translate(895 1238)"><circle class="e" cx="9.5" cy="9.5" r="9.5"/><text class="f" transform="translate(6 14)"><tspan x="0" y="0">5</tspan></text></g><g transform="translate(874 1238)"><circle class="e" cx="9.5" cy="9.5" r="9.5"/><text class="f" transform="translate(6 14)"><tspan x="0" y="0">2</tspan></text></g><g transform="translate(985 1238)"><circle class="e" cx="9.5" cy="9.5" r="9.5"/><text class="f" transform="translate(6 14)"><tspan x="0" y="0">4</tspan></text></g><g transform="translate(772 1238)"><circle class="e" cx="9.5" cy="9.5" r="9.5"/><text class="f" transform="translate(6 14)"><tspan x="0" y="0">3</tspan></text></g><g class="g" transform="translate(868 1232)"><rect class="m" width="152" height="31"/><rect class="n" x="1" y="1" width="150" height="29"/></g><g class="h" transform="translate(708 1232)"><rect class="m" width="107" height="31"/><rect class="n" x="1" y="1" width="105" height="29"/></g></g><g transform="translate(0 -90)"><text class="d" transform="translate(670 1297)"><tspan x="0" y="0">Appearance</tspan></text><text class="a" transform="translate(670 1340)"><tspan x="0" y="0">0%</tspan></text><text class="a" transform="translate(1030 1340)"><tspan x="0" y="0">100%</tspan></text><text class="a" transform="translate(846 1340)"><tspan x="0" y="0">50%</tspan></text><text class="a" transform="translate(753 1340)"><tspan x="0" y="0">25%</tspan></text><text class="a" transform="translate(938 1340)"><tspan x="0" y="0">75%</tspan></text><rect class="b" width="360" height="8" transform="translate(670 1313)"/><g transform="translate(0 354)"><rect class="c" width="3" height="8" transform="translate(670 959)"/><rect class="c" width="3" height="8" transform="translate(753 959)"/><rect class="c" width="3" height="8" transform="translate(846 959)"/><rect class="c" width="3" height="8" transform="translate(939 959)"/><rect class="c" width="3" height="8" transform="translate(1030 959)"/></g><g transform="translate(954 1308)"><circle class="e" cx="9.5" cy="9.5" r="9.5"/><text class="f" transform="translate(6 14)"><tspan x="0" y="0">1</tspan></text></g><g transform="translate(754 1308)"><circle class="e" cx="9.5" cy="9.5" r="9.5"/><text class="f" transform="translate(6 14)"><tspan x="0" y="0">5</tspan></text></g><g transform="translate(712 1308)"><circle class="e" cx="9.5" cy="9.5" r="9.5"/><text class="f" transform="translate(6 14)"><tspan x="0" y="0">2</tspan></text></g><g transform="translate(733 1308)"><circle class="e" cx="9.5" cy="9.5" r="9.5"/><text class="f" transform="translate(6 14)"><tspan x="0" y="0">4</tspan></text></g><g transform="translate(927 1308)"><circle class="e" cx="9.5" cy="9.5" r="9.5"/><text class="f" transform="translate(6 14)"><tspan x="0" y="0">3</tspan></text></g><g class="g" transform="translate(693 1302)"><rect class="m" width="99" height="31"/><rect class="n" x="1" y="1" width="97" height="29"/></g><g class="h" transform="translate(914 1302)"><rect class="m" width="68" height="31"/><rect class="n" x="1" y="1" width="66" height="29"/></g></g><g transform="translate(0 -38)"><text class="d" transform="translate(670 1157)"><tspan x="0" y="0">Abilities Awareness</tspan></text><text class="a" transform="translate(670 1200)"><tspan x="0" y="0">0%</tspan></text><text class="a" transform="translate(1030 1200)"><tspan x="0" y="0">100%</tspan></text><text class="a" transform="translate(846 1200)"><tspan x="0" y="0">50%</tspan></text><text class="a" transform="translate(753 1200)"><tspan x="0" y="0">25%</tspan></text><text class="a" transform="translate(938 1200)"><tspan x="0" y="0">75%</tspan></text><rect class="b" width="360" height="8" transform="translate(670 1173)"/><g transform="translate(0 214)"><rect class="c" width="3" height="8" transform="translate(670 959)"/><rect class="c" width="3" height="8" transform="translate(753 959)"/><rect class="c" width="3" height="8" transform="translate(846 959)"/><rect class="c" width="3" height="8" transform="translate(939 959)"/><rect class="c" width="3" height="8" transform="translate(1030 959)"/></g><g transform="translate(981 1168)"><circle class="e" cx="9.5" cy="9.5" r="9.5"/><text class="f" transform="translate(6 14)"><tspan x="0" y="0">1</tspan></text></g><g transform="translate(889 1168)"><circle class="e" cx="9.5" cy="9.5" r="9.5"/><text class="f" transform="translate(6 14)"><tspan x="0" y="0">5</tspan></text></g><g transform="translate(791 1168)"><circle class="e" cx="9.5" cy="9.5" r="9.5"/><text class="f" transform="translate(6 14)"><tspan x="0" y="0">2</tspan></text></g><g transform="translate(960 1168)"><circle class="e" cx="9.5" cy="9.5" r="9.5"/><text class="f" transform="translate(6 14)"><tspan x="0" y="0">4</tspan></text></g><g transform="translate(704 1168)"><circle class="e" cx="9.5" cy="9.5" r="9.5"/><text class="f" transform="translate(6 14)"><tspan x="0" y="0">3</tspan></text></g><g class="h" transform="translate(687 1162)"><rect class="m" width="139" height="31"/><rect class="n" x="1" y="1" width="137" height="29"/></g><g class="g" transform="translate(877 1162)"><rect class="m" width="136" height="31"/><rect class="n" x="1" y="1" width="134" height="29"/></g></g><g transform="translate(0 88)"><text class="a" transform="translate(670 986)"><tspan x="0" y="0">0%</tspan></text><text class="a" transform="translate(1030 986)"><tspan x="0" y="0">100%</tspan></text><text class="a" transform="translate(846 986)"><tspan x="0" y="0">50%</tspan></text><text class="a" transform="translate(753 986)"><tspan x="0" y="0">25%</tspan></text><text class="a" transform="translate(938 986)"><tspan x="0" y="0">75%</tspan></text><rect class="b" width="360" height="8" transform="translate(670 959)"/><rect class="c" width="3" height="8" transform="translate(670 959)"/><rect class="c" width="3" height="8" transform="translate(753 959)"/><rect class="c" width="3" height="8" transform="translate(846 959)"/><rect class="c" width="3" height="8" transform="translate(939 959)"/><rect class="c" width="3" height="8" transform="translate(1030 959)"/><text class="d" transform="translate(670 943)"><tspan x="0" y="0">Pet Owning Experience</tspan></text><g transform="translate(975 954)"><circle class="e" cx="9.5" cy="9.5" r="9.5"/><text class="f" transform="translate(6 14)"><tspan x="0" y="0">1</tspan></text></g><g transform="translate(914 954)"><circle class="e" cx="9.5" cy="9.5" r="9.5"/><text class="f" transform="translate(6 14)"><tspan x="0" y="0">5</tspan></text></g><g transform="translate(810 954)"><circle class="e" cx="9.5" cy="9.5" r="9.5"/><text class="f" transform="translate(6 14)"><tspan x="0" y="0">2</tspan></text></g><g transform="translate(890 954)"><circle class="e" cx="9.5" cy="9.5" r="9.5"/><text class="f" transform="translate(6 14)"><tspan x="0" y="0">4</tspan></text></g><g transform="translate(704 954)"><circle class="e" cx="9.5" cy="9.5" r="9.5"/><text class="f" transform="translate(6 14)"><tspan x="0" y="0">3</tspan></text></g><g class="h" transform="translate(693 948)"><rect class="m" width="146" height="31"/><rect class="n" x="1" y="1" width="144" height="29"/></g><g class="g" transform="translate(876 948)"><rect class="m" width="131" height="31"/><rect class="n" x="1" y="1" width="129" height="29"/></g></g><g transform="translate(0 -70)"><text class="d" transform="translate(670 1013)"><tspan x="0" y="0">Motivation</tspan></text><text class="a" transform="translate(670 1056)"><tspan x="0" y="0">0%</tspan></text><text class="a" transform="translate(1030 1056)"><tspan x="0" y="0">100%</tspan></text><text class="a" transform="translate(846 1056)"><tspan x="0" y="0">50%</tspan></text><text class="a" transform="translate(753 1056)"><tspan x="0" y="0">25%</tspan></text><text class="a" transform="translate(938 1056)"><tspan x="0" y="0">75%</tspan></text><rect class="b" width="360" height="8" transform="translate(670 1029)"/><g transform="translate(0 70)"><rect class="c" width="3" height="8" transform="translate(670 959)"/><rect class="c" width="3" height="8" transform="translate(753 959)"/><rect class="c" width="3" height="8" transform="translate(846 959)"/><rect class="c" width="3" height="8" transform="translate(939 959)"/><rect class="c" width="3" height="8" transform="translate(1030 959)"/></g><g transform="translate(875 1024)"><circle class="e" cx="9.5" cy="9.5" r="9.5"/><text class="f" transform="translate(6 14)"><tspan x="0" y="0">1</tspan></text></g><g transform="translate(832 1024)"><circle class="e" cx="9.5" cy="9.5" r="9.5"/><text class="f" transform="translate(6 14)"><tspan x="0" y="0">5</tspan></text></g><g transform="translate(1007 1024)"><circle class="e" cx="9.5" cy="9.5" r="9.5"/><text class="f" transform="translate(6 14)"><tspan x="0" y="0">2</tspan></text></g><g transform="translate(799 1024)"><circle class="e" cx="9.5" cy="9.5" r="9.5"/><text class="f" transform="translate(6 14)"><tspan x="0" y="0">4</tspan></text></g><g transform="translate(974 1024)"><circle class="e" cx="9.5" cy="9.5" r="9.5"/><text class="f" transform="translate(6 14)"><tspan x="0" y="0">3</tspan></text></g><g class="h" transform="translate(961 1018)"><rect class="m" width="77" height="31"/><rect class="n" x="1" y="1" width="75" height="29"/></g><g class="i" transform="translate(787 1018)"><path class="m" d="M0,0H121V31H0Z"/><path class="o" d="M 0 0 L 4 0 L 4 2 L 0 2 L 0 0 Z M 8 0 L 12 0 L 12 2 L 8 2 L 8 0 Z M 16 0 L 20 0 L 20 2 L 16 2 L 16 0 Z M 24 0 L 28 0 L 28 2 L 24 2 L 24 0 Z M 32 0 L 36 0 L 36 2 L 32 2 L 32 0 Z M 40 0 L 44 0 L 44 2 L 40 2 L 40 0 Z M 48 0 L 52 0 L 52 2 L 48 2 L 48 0 Z M 56 0 L 60 0 L 60 2 L 56 2 L 56 0 Z M 64 0 L 68 0 L 68 2 L 64 2 L 64 0 Z M 72 0 L 76 0 L 76 2 L 72 2 L 72 0 Z M 80 0 L 84 0 L 84 2 L 80 2 L 80 0 Z M 88 0 L 92 0 L 92 2 L 88 2 L 88 0 Z M 96 0 L 100 0 L 100 2 L 96 2 L 96 0 Z M 104 0 L 108 0 L 108 2 L 104 2 L 104 0 Z M 112 0 L 116 0 L 116 2 L 112 2 L 112 0 Z M 119 0 L 121 0 L 121 2 L 121 2 C 121 2.550777435302734 121 3 121 3 L 119 3 L 119 0 Z M 119 7 L 121 7 C 121 7 121 11 121 11 L 119 11 L 119 7 Z M 119 15 L 121 15 C 121 15 121 19 121 19 L 119 19 L 119 15 Z M 119 23 L 121 23 C 121 23 121 27 121 27 L 119 27 L 119 23 Z M 117 29 L 121 29 L 121 31 C 121 31 117 31 117 31 L 117 29 Z M 109 29 L 113 29 L 113 31 C 113 31 109 31 109 31 L 109 29 Z M 101 29 L 105 29 L 105 31 C 105 31 101 31 101 31 L 101 29 Z M 93 29 L 97 29 L 97 31 C 97 31 93 31 93 31 L 93 29 Z M 85 29 L 89 29 L 89 31 C 89 31 85 31 85 31 L 85 29 Z M 77 29 L 81 29 L 81 31 C 81 31 77 31 77 31 L 77 29 Z M 69 29 L 73 29 L 73 31 C 73 31 69 31 69 31 L 69 29 Z M 61 29 L 65 29 L 65 31 C 65 31 61 31 61 31 L 61 29 Z M 53 29 L 57 29 L 57 31 C 57 31 53 31 53 31 L 53 29 Z M 45 29 L 49 29 L 49 31 C 49 31 45 31 45 31 L 45 29 Z M 37 29 L 41 29 L 41 31 C 41 31 37 31 37 31 L 37 29 Z M 29 29 L 33 29 L 33 31 C 33 31 29 31 29 31 L 29 29 Z M 21 29 L 25 29 L 25 31 C 25 31 21 31 21 31 L 21 29 Z M 13 29 L 17 29 L 17 31 C 17 31 13 31 13 31 L 13 29 Z M 5 29 L 9 29 L 9 31 C 9 31 5 31 5 31 L 5 29 Z M 0 28 L 2 28 L 2 31 L 1 31 L 1 31 L 2 31 L 1 31 L 1 31 C 1 31 0 31 0 31 L 0 28 Z M 0 20 L 2 20 L 2 24 L 0 24 L 0 20 Z M 0 12 L 2 12 L 2 16 L 0 16 L 0 12 Z M 0 4 L 2 4 L 2 8 L 0 8 L 0 4 Z"/></g></g></g></g><g transform="translate(23)"><g transform="translate(96 13807)"><g transform="translate(0 68)"><text class="a" transform="translate(670 1270)"><tspan x="0" y="0">0%</tspan></text><text class="a" transform="translate(1030 1270)"><tspan x="0" y="0">100%</tspan></text><text class="a" transform="translate(846 1270)"><tspan x="0" y="0">50%</tspan></text><text class="a" transform="translate(753 1270)"><tspan x="0" y="0">25%</tspan></text><text class="a" transform="translate(938 1270)"><tspan x="0" y="0">75%</tspan></text><rect class="b" width="360" height="8" transform="translate(670 1243)"/><g transform="translate(0 284)"><rect class="c" width="3" height="8" transform="translate(670 959)"/><rect class="c" width="3" height="8" transform="translate(753 959)"/><rect class="c" width="3" height="8" transform="translate(846 959)"/><rect class="c" width="3" height="8" transform="translate(939 959)"/><rect class="c" width="3" height="8" transform="translate(1030 959)"/></g><text class="d" transform="translate(670 1227)"><tspan x="0" y="0">Effort of Seeking</tspan></text><g transform="translate(726 1238)"><circle class="e" cx="9.5" cy="9.5" r="9.5"/><text class="f" transform="translate(6 14)"><tspan x="0" y="0">1</tspan></text></g><g transform="translate(895 1238)"><circle class="e" cx="9.5" cy="9.5" r="9.5"/><text class="f" transform="translate(6 14)"><tspan x="0" y="0">5</tspan></text></g><g transform="translate(874 1238)"><circle class="e" cx="9.5" cy="9.5" r="9.5"/><text class="f" transform="translate(6 14)"><tspan x="0" y="0">2</tspan></text></g><g transform="translate(985 1238)"><circle class="e" cx="9.5" cy="9.5" r="9.5"/><text class="f" transform="translate(6 14)"><tspan x="0" y="0">4</tspan></text></g><g transform="translate(772 1238)"><circle class="e" cx="9.5" cy="9.5" r="9.5"/><text class="f" transform="translate(6 14)"><tspan x="0" y="0">3</tspan></text></g></g><g transform="translate(0 -90)"><text class="d" transform="translate(670 1297)"><tspan x="0" y="0">Appearance</tspan></text><text class="a" transform="translate(670 1340)"><tspan x="0" y="0">0%</tspan></text><text class="a" transform="translate(1030 1340)"><tspan x="0" y="0">100%</tspan></text><text class="a" transform="translate(846 1340)"><tspan x="0" y="0">50%</tspan></text><text class="a" transform="translate(753 1340)"><tspan x="0" y="0">25%</tspan></text><text class="a" transform="translate(938 1340)"><tspan x="0" y="0">75%</tspan></text><rect class="b" width="360" height="8" transform="translate(670 1313)"/><g transform="translate(0 354)"><rect class="c" width="3" height="8" transform="translate(670 959)"/><rect class="c" width="3" height="8" transform="translate(753 959)"/><rect class="c" width="3" height="8" transform="translate(846 959)"/><rect class="c" width="3" height="8" transform="translate(939 959)"/><rect class="c" width="3" height="8" transform="translate(1030 959)"/></g><g transform="translate(954 1308)"><circle class="e" cx="9.5" cy="9.5" r="9.5"/><text class="f" transform="translate(6 14)"><tspan x="0" y="0">1</tspan></text></g><g transform="translate(754 1308)"><circle class="e" cx="9.5" cy="9.5" r="9.5"/><text class="f" transform="translate(6 14)"><tspan x="0" y="0">5</tspan></text></g><g transform="translate(712 1308)"><circle class="e" cx="9.5" cy="9.5" r="9.5"/><text class="f" transform="translate(6 14)"><tspan x="0" y="0">2</tspan></text></g><g transform="translate(733 1308)"><circle class="e" cx="9.5" cy="9.5" r="9.5"/><text class="f" transform="translate(6 14)"><tspan x="0" y="0">4</tspan></text></g><g transform="translate(927 1308)"><circle class="e" cx="9.5" cy="9.5" r="9.5"/><text class="f" transform="translate(6 14)"><tspan x="0" y="0">3</tspan></text></g></g><g transform="translate(0 -38)"><text class="d" transform="translate(670 1157)"><tspan x="0" y="0">Abilities Awareness</tspan></text><text class="a" transform="translate(670 1200)"><tspan x="0" y="0">0%</tspan></text><text class="a" transform="translate(1030 1200)"><tspan x="0" y="0">100%</tspan></text><text class="a" transform="translate(846 1200)"><tspan x="0" y="0">50%</tspan></text><text class="a" transform="translate(753 1200)"><tspan x="0" y="0">25%</tspan></text><text class="a" transform="translate(938 1200)"><tspan x="0" y="0">75%</tspan></text><rect class="b" width="360" height="8" transform="translate(670 1173)"/><g transform="translate(0 214)"><rect class="c" width="3" height="8" transform="translate(670 959)"/><rect class="c" width="3" height="8" transform="translate(753 959)"/><rect class="c" width="3" height="8" transform="translate(846 959)"/><rect class="c" width="3" height="8" transform="translate(939 959)"/><rect class="c" width="3" height="8" transform="translate(1030 959)"/></g><g transform="translate(981 1168)"><circle class="e" cx="9.5" cy="9.5" r="9.5"/><text class="f" transform="translate(6 14)"><tspan x="0" y="0">1</tspan></text></g><g transform="translate(889 1168)"><circle class="e" cx="9.5" cy="9.5" r="9.5"/><text class="f" transform="translate(6 14)"><tspan x="0" y="0">5</tspan></text></g><g transform="translate(791 1168)"><circle class="e" cx="9.5" cy="9.5" r="9.5"/><text class="f" transform="translate(6 14)"><tspan x="0" y="0">2</tspan></text></g><g transform="translate(960 1168)"><circle class="e" cx="9.5" cy="9.5" r="9.5"/><text class="f" transform="translate(6 14)"><tspan x="0" y="0">4</tspan></text></g><g transform="translate(704 1168)"><circle class="e" cx="9.5" cy="9.5" r="9.5"/><text class="f" transform="translate(6 14)"><tspan x="0" y="0">3</tspan></text></g></g><g transform="translate(0 88)"><text class="a" transform="translate(670 986)"><tspan x="0" y="0">0%</tspan></text><text class="a" transform="translate(1030 986)"><tspan x="0" y="0">100%</tspan></text><text class="a" transform="translate(846 986)"><tspan x="0" y="0">50%</tspan></text><text class="a" transform="translate(753 986)"><tspan x="0" y="0">25%</tspan></text><text class="a" transform="translate(938 986)"><tspan x="0" y="0">75%</tspan></text><rect class="b" width="360" height="8" transform="translate(670 959)"/><rect class="c" width="3" height="8" transform="translate(670 959)"/><rect class="c" width="3" height="8" transform="translate(753 959)"/><rect class="c" width="3" height="8" transform="translate(846 959)"/><rect class="c" width="3" height="8" transform="translate(939 959)"/><rect class="c" width="3" height="8" transform="translate(1030 959)"/><text class="d" transform="translate(670 943)"><tspan x="0" y="0">Pet Owning Experience</tspan></text><g transform="translate(975 954)"><circle class="e" cx="9.5" cy="9.5" r="9.5"/><text class="f" transform="translate(6 14)"><tspan x="0" y="0">1</tspan></text></g><g transform="translate(914 954)"><circle class="e" cx="9.5" cy="9.5" r="9.5"/><text class="f" transform="translate(6 14)"><tspan x="0" y="0">5</tspan></text></g><g transform="translate(810 954)"><circle class="e" cx="9.5" cy="9.5" r="9.5"/><text class="f" transform="translate(6 14)"><tspan x="0" y="0">2</tspan></text></g><g transform="translate(890 954)"><circle class="e" cx="9.5" cy="9.5" r="9.5"/><text class="f" transform="translate(6 14)"><tspan x="0" y="0">4</tspan></text></g><g transform="translate(704 954)"><circle class="e" cx="9.5" cy="9.5" r="9.5"/><text class="f" transform="translate(6 14)"><tspan x="0" y="0">3</tspan></text></g></g><g transform="translate(0 -70)"><text class="d" transform="translate(670 1013)"><tspan x="0" y="0">Motivation</tspan></text><text class="a" transform="translate(670 1056)"><tspan x="0" y="0">0%</tspan></text><text class="a" transform="translate(1030 1056)"><tspan x="0" y="0">100%</tspan></text><text class="a" transform="translate(846 1056)"><tspan x="0" y="0">50%</tspan></text><text class="a" transform="translate(753 1056)"><tspan x="0" y="0">25%</tspan></text><text class="a" transform="translate(938 1056)"><tspan x="0" y="0">75%</tspan></text><rect class="b" width="360" height="8" transform="translate(670 1029)"/><g transform="translate(0 70)"><rect class="c" width="3" height="8" transform="translate(670 959)"/><rect class="c" width="3" height="8" transform="translate(753 959)"/><rect class="c" width="3" height="8" transform="translate(846 959)"/><rect class="c" width="3" height="8" transform="translate(939 959)"/><rect class="c" width="3" height="8" transform="translate(1030 959)"/></g><g transform="translate(875 1024)"><circle class="e" cx="9.5" cy="9.5" r="9.5"/><text class="f" transform="translate(6 14)"><tspan x="0" y="0">1</tspan></text></g><g transform="translate(832 1024)"><circle class="e" cx="9.5" cy="9.5" r="9.5"/><text class="f" transform="translate(6 14)"><tspan x="0" y="0">5</tspan></text></g><g transform="translate(1007 1024)"><circle class="e" cx="9.5" cy="9.5" r="9.5"/><text class="f" transform="translate(6 14)"><tspan x="0" y="0">2</tspan></text></g><g transform="translate(799 1024)"><circle class="e" cx="9.5" cy="9.5" r="9.5"/><text class="f" transform="translate(6 14)"><tspan x="0" y="0">4</tspan></text></g><g transform="translate(974 1024)"><circle class="e" cx="9.5" cy="9.5" r="9.5"/><text class="f" transform="translate(6 14)"><tspan x="0" y="0">3</tspan></text></g></g></g></g><text class="j" transform="translate(1257 14547)"><tspan x="-128.22" y="0">PERSONA SPECTRUM</tspan></text><text class="k" transform="translate(1203 14667)"><tspan x="0" y="0">participant 1-6</tspan></text><g transform="translate(648 2028)"><g transform="translate(522 12587)"><circle class="e" cx="9.5" cy="9.5" r="9.5"/><text class="f" transform="translate(6 14)"><tspan x="0" y="0">1</tspan></text></g><g transform="translate(553 12587)"><circle class="e" cx="9.5" cy="9.5" r="9.5"/><text class="f" transform="translate(6 14)"><tspan x="0" y="0">2</tspan></text></g><g transform="translate(584 12587)"><circle class="e" cx="9.5" cy="9.5" r="9.5"/><text class="f" transform="translate(6 14)"><tspan x="0" y="0">3</tspan></text></g><g transform="translate(615 12587)"><circle class="e" cx="9.5" cy="9.5" r="9.5"/><text class="f" transform="translate(6 14)"><tspan x="0" y="0">4</tspan></text></g><g transform="translate(646 12587)"><circle class="e" cx="9.5" cy="9.5" r="9.5"/><text class="f" transform="translate(6 14)"><tspan x="0" y="0">5</tspan></text></g><g transform="translate(677 12587)"><circle class="e" cx="9.5" cy="9.5" r="9.5"/><text class="f" transform="translate(6 14)"><tspan x="0" y="0">6</tspan></text></g></g><path class="l" d="M0,0,17.408,17.408,0,34.815" transform="translate(1248.092 14924.149)"/></g></svg>