<svg xmlns="http://www.w3.org/2000/svg" xmlns:xlink="http://www.w3.org/1999/xlink" width="1031.948" height="692.955" viewBox="0 0 1031.948 692.955"><defs><style>.a,.c{fill:#fff;}.a,.i{fill-rule:evenodd;}.b{clip-path:url(#c);}.d,.e,.i,.j{fill:none;stroke-linejoin:round;stroke-miterlimit:10;stroke-width:2.292px;}.d{stroke:rgba(204,204,204,0);}.e{stroke:#b7b7b7;}.f{clip-path:url(#f);}.g{fill:#bfbfbf;}.h{fill:#487c72;}.i,.j{stroke:#000;}.k{fill:#7f7f7f;}.k,.l,.m,.n,.o{font-size:11px;}.k,.l,.n{font-family:Arial-BoldMT, Arial;font-weight:700;}.l,.p{fill:#4e6863;}.m,.o{font-family:ArialMT, Arial;}.o{fill:#1a1a1a;}.q{filter:url(#a);}</style><filter id="a" x="0" y="0" width="1031.948" height="692.955" filterUnits="userSpaceOnUse"><feOffset dy="3" input="SourceAlpha"/><feGaussianBlur stdDeviation="24" result="b"/><feFlood flood-opacity="0.161"/><feComposite operator="in" in2="b"/><feComposite in="SourceGraphic"/></filter><clipPath id="c"><rect width="887" height="549" transform="translate(0 0)"/></clipPath><clipPath id="f"><rect width="640" height="422" transform="translate(0.326 -0.39)"/></clipPath></defs><g transform="translate(-1673.006 -454)"><g class="q" transform="matrix(1, 0, 0, 1, 1673.01, 454)"><path class="a" d="M1745,537.887A14.888,14.888,0,0,1,1759.889,523h858.17a14.888,14.888,0,0,1,14.889,14.887v519.178a14.889,14.889,0,0,1-14.889,14.889h-858.17A14.889,14.889,0,0,1,1745,1057.066Z" transform="translate(-1673 -454)"/></g><g class="b" transform="translate(1744.955 523)"><rect class="c" width="638" height="419" transform="translate(92 64)"/></g><g class="b" transform="translate(1744.955 523)"><path class="d" d="M2025,1151.111h639.96M2025,1142.658h639.96m-639.96-8.45h639.96M2025,1126.082h639.96m-639.96-16.9h639.96M2025,1100.73h639.96M2025,1092.6h639.96m-639.96-8.45h639.96M2025,1067.579h639.96m-639.96-8.45h639.96M2025,1050.675h639.96M2025,1042.224h639.96M2025,1025.648h639.96M2025,1017.2h639.96M2025,1009.072h639.96m-639.96-8.45h639.96M2025,984.046h639.96M2025,975.6h639.96M2025,967.145h639.96M2025,958.694h639.96M2025,942.115h639.96M2025,933.665h639.96M2025,925.539h639.96M2025,917.089h639.96M2025,900.513h639.96M2025,892.063h639.96M2025,883.612h639.96M2025,875.161h639.96M2025,858.586h639.96M2025,850.132h639.96M2025,842.006h639.96M2025,833.556h639.96M2025,816.655h639.96M2025,808.53h639.96M2025,800.079h639.96M2025,791.629h639.96M2025,775.052h639.96M2025,766.6h639.96M2025,758.475h639.96M2025,750.025h639.96" transform="translate(-1933.943 -676.238)"/></g><g class="b" transform="translate(1744.955 523)"><path class="e" d="M2025,1100.065h639.96M2025,1058.138h639.96M2025,1016.532h639.96M2025,974.6h639.96M2025,933h639.96M2025,891.072h639.96M2025,849.47h639.96M2025,807.54h639.96M2025,765.936h639.96M2025,724h639.96" transform="translate(-1933.943 -658.672)"/></g><g class="f" transform="translate(1836.629 587.389)"><path class="g" d="M2085.07,1151.7H2111.4V1289.49H2085.07ZM2176.4,943.031h26.326V1289.49H2176.4Zm91.658,0h26V1289.49h-26Zm91.333,0h26.327V1289.49h-26.327Zm91.333,0h26.326V1289.49h-26.326Zm91.655,208.667h26V1289.49h-26Zm91.333-139.111h26.329v276.9h-26.329Z" transform="translate(-2066.164 -870.903)"/></g><g class="f" transform="translate(1836.629 587.389)"><path class="h" d="M2166.07,1020.757h26v120.89h-26ZM2257.4,782.513h26v359.135h-26Zm91.333,179.741h26.327v179.393h-26.327ZM2440.395,724h26v417.648h-26Zm91.334,58.513h26v359.135h-26Zm91.333,0h26.326v359.135h-26.326Zm91.658,59.806h26v299.328h-26Z" transform="translate(-2120.838 -723.061)"/></g><g class="b" transform="translate(1744.955 523)"><path class="i" d="M2025,2009h639.96" transform="translate(-1933.943 -1526.024)"/></g><g class="b" transform="translate(1744.955 523)"><path class="j" d="M2070.85,1997v6.825m91.333-6.825v6.825m91.333-6.825v6.825m91.658-6.825v6.825m91.333-6.825v6.825m91.333-6.825v6.825M2619.5,1997v6.825m45.46-6.825v6.825M2025,1996v8.775m91.356-8.775v8.775m91.655-8.775v8.775m91.333-8.775v8.775m91.333-8.775v8.775m91.658-8.775v8.775m91.334-8.775v8.775M2664.96,1996v8.775" transform="translate(-1933.943 -1517.249)"/></g><g class="b" transform="translate(1744.955 523)"><text class="k" transform="translate(108.783 331.767)"><tspan x="0" y="0">33%</tspan></text></g><g class="b" transform="translate(1744.955 523)"><text class="k" transform="translate(200.227 122.781)"><tspan x="0" y="0">83%</tspan></text></g><g class="b" transform="translate(1744.955 523)"><text class="k" transform="translate(291.667 122.781)"><tspan x="0" y="0">83%</tspan></text></g><g class="b" transform="translate(1744.955 523)"><text class="k" transform="translate(383.108 122.781)"><tspan x="0" y="0">83%</tspan></text></g><g class="b" transform="translate(1744.955 523)"><text class="k" transform="translate(474.548 122.781)"><tspan x="0" y="0">83%</tspan></text></g><g class="b" transform="translate(1744.955 523)"><text class="k" transform="translate(565.989 331.767)"><tspan x="0" y="0">33%</tspan></text></g><g class="b" transform="translate(1744.955 523)"><text class="k" transform="translate(657.429 192.66)"><tspan x="0" y="0">66%</tspan></text></g><g class="b" transform="translate(1744.955 523)"><text class="l" transform="translate(134.911 348.343)"><tspan x="0" y="0">29%</tspan></text></g><g class="b" transform="translate(1744.955 523)"><text class="l" transform="translate(226.352 110.43)"><tspan x="0" y="0">86%</tspan></text></g><g class="b" transform="translate(1744.955 523)"><text class="l" transform="translate(317.792 289.84)"><tspan x="0" y="0">43%</tspan></text></g><g class="b" transform="translate(1744.955 523)"><text class="l" transform="translate(405.092 51.927)"><tspan x="0" y="0">100%</tspan></text></g><g class="b" transform="translate(1744.955 523)"><text class="l" transform="translate(500.673 110.43)"><tspan x="0" y="0">86%</tspan></text></g><g class="b" transform="translate(1744.955 523)"><text class="l" transform="translate(592.117 110.43)"><tspan x="0" y="0">86%</tspan></text></g><g class="b" transform="translate(1744.955 523)"><text class="l" transform="translate(683.557 170.233)"><tspan x="0" y="0">72%</tspan></text></g><g class="b" transform="translate(1744.955 523)"><text class="m" transform="translate(56.686 484.201)"><tspan x="0" y="0">0%</tspan></text></g><g class="b" transform="translate(1744.955 523)"><text class="m" transform="translate(48.401 442.598)"><tspan x="0" y="0">10%</tspan></text></g><g class="b" transform="translate(1744.955 523)"><text class="m" transform="translate(48.401 400.671)"><tspan x="0" y="0">20%</tspan></text></g><g class="b" transform="translate(1744.955 523)"><text class="m" transform="translate(48.401 359.069)"><tspan x="0" y="0">30%</tspan></text></g><g class="b" transform="translate(1744.955 523)"><text class="m" transform="translate(48.401 317.141)"><tspan x="0" y="0">40%</tspan></text></g><g class="b" transform="translate(1744.955 523)"><text class="m" transform="translate(48.401 275.539)"><tspan x="0" y="0">50%</tspan></text></g><g class="b" transform="translate(1744.955 523)"><text class="m" transform="translate(48.401 233.612)"><tspan x="0" y="0">60%</tspan></text></g><g class="b" transform="translate(1744.955 523)"><text class="m" transform="translate(48.401 192.01)"><tspan x="0" y="0">70%</tspan></text></g><g class="b" transform="translate(1744.955 523)"><text class="m" transform="translate(48.401 150.082)"><tspan x="0" y="0">80%</tspan></text></g><g class="b" transform="translate(1744.955 523)"><text class="m" transform="translate(48.401 108.48)"><tspan x="0" y="0">90%</tspan></text></g><g class="b" transform="translate(1744.955 523)"><text class="m" transform="translate(40.12 66.553)"><tspan x="0" y="0">100%</tspan></text></g><g class="b" transform="translate(1744.955 523)"><text class="m" transform="translate(132.61 502.077)"><tspan x="0" y="0">1</tspan></text></g><g class="b" transform="translate(1744.955 523)"><text class="m" transform="translate(224.05 502.077)"><tspan x="0" y="0">2</tspan></text></g><g class="b" transform="translate(1744.955 523)"><text class="m" transform="translate(315.491 502.077)"><tspan x="0" y="0">3</tspan></text></g><g class="b" transform="translate(1744.955 523)"><text class="m" transform="translate(406.935 502.077)"><tspan x="0" y="0">4</tspan></text></g><g class="b" transform="translate(1744.955 523)"><text class="m" transform="translate(498.375 502.077)"><tspan x="0" y="0">5</tspan></text></g><g class="b" transform="translate(1744.955 523)"><text class="m" transform="translate(589.816 502.077)"><tspan x="0" y="0">6</tspan></text></g><g class="b" transform="translate(1744.955 523)"><text class="m" transform="translate(657.66 502.077)"><tspan x="0" y="0">Average</tspan></text></g><g class="b" transform="translate(1744.955 523)"><text class="n" transform="translate(394.1 523.528)"><tspan x="0" y="0">Task</tspan></text></g><g class="b" transform="translate(1744.955 523)"><rect class="g" width="6" height="7" transform="translate(762 296)"/></g><g class="b" transform="translate(1744.955 523)"><text class="o" transform="translate(772.183 300.241)"><tspan x="0" y="0">original design</tspan></text></g><g class="b" transform="translate(1744.955 523)"><rect class="p" width="6" height="7" transform="translate(762 321)"/></g><g class="b" transform="translate(1744.955 523)"><text class="o" transform="translate(772.183 325.592)"><tspan x="0" y="0">redesign</tspan></text></g></g></svg>