<svg xmlns="http://www.w3.org/2000/svg" xmlns:xlink="http://www.w3.org/1999/xlink" width="784.488" height="539.967" viewBox="0 0 784.488 539.967"><defs><style>.a,.c{fill:#fff;}.a,.i{fill-rule:evenodd;}.b{clip-path:url(#c);}.d,.e,.i,.j{fill:none;stroke-linejoin:round;stroke-miterlimit:10;stroke-width:2.292px;}.d{stroke:rgba(204,204,204,0);}.e{stroke:#b7b7b7;}.f{clip-path:url(#f);}.g{fill:#bfbfbf;}.h{fill:#487c72;}.i,.j{stroke:#000;}.k{fill:#7f7f7f;}.k,.l,.m,.n,.o,.p{font-size:7px;}.k,.l,.m,.o{font-family:Arial-BoldMT, Arial;font-weight:700;}.l,.q{fill:#4e6863;}.m,.r{fill:#a94f4f;}.n,.p{font-family:ArialMT, Arial;}.p{fill:#1a1a1a;}.s{filter:url(#a);}</style><filter id="a" x="0" y="0" width="784.488" height="539.967" filterUnits="userSpaceOnUse"><feOffset dy="3" input="SourceAlpha"/><feGaussianBlur stdDeviation="24" result="b"/><feFlood flood-opacity="0.161"/><feComposite operator="in" in2="b"/><feComposite in="SourceGraphic"/></filter><clipPath id="c"><rect width="640" height="396" transform="translate(-0.475 -0.001)"/></clipPath><clipPath id="f"><rect width="461" height="305" transform="translate(0.164 -0.163)"/></clipPath></defs><g transform="translate(-1672.992 -454)"><g class="s" transform="matrix(1, 0, 0, 1, 1672.99, 454)"><path class="a" d="M1745,533.738A10.739,10.739,0,0,1,1755.74,523h619.009a10.739,10.739,0,0,1,10.74,10.738v374.49a10.74,10.74,0,0,1-10.74,10.74H1755.74a10.74,10.74,0,0,1-10.74-10.74Z" transform="translate(-1673 -454)"/></g><g class="b" transform="translate(1744.955 523.001)"><rect class="c" width="460" height="302" transform="translate(66.525 45.999)"/></g><g class="b" transform="translate(1744.955 523.001)"><path class="d" d="M2025,1039.333h461.611m-461.611-6.1h461.611M2025,1027.14h461.611M2025,1021.279h461.611M2025,1009.089h461.611m-461.611-6.1h461.611M2025,997.132h461.611M2025,991.037h461.611M2025,979.08h461.611M2025,972.985h461.611M2025,966.887h461.611M2025,960.792h461.611M2025,948.835h461.611M2025,942.74h461.611M2025,936.879h461.611M2025,930.783h461.611M2025,918.827h461.611M2025,912.732h461.611M2025,906.636h461.611M2025,900.541h461.611M2025,888.582h461.611M2025,882.487h461.611M2025,876.626h461.611M2025,870.53h461.611M2025,858.574h461.611M2025,852.478h461.611M2025,846.383h461.611M2025,840.287h461.611M2025,828.331h461.611M2025,822.233h461.611M2025,816.372h461.611M2025,810.277h461.611M2025,798.086h461.611M2025,792.225h461.611M2025,786.13h461.611M2025,780.034h461.611M2025,768.077h461.611M2025,761.982h461.611M2025,756.12h461.611M2025,750.025h461.611" transform="translate(-1959.32 -696.802)"/></g><g class="b" transform="translate(1744.955 523.001)"><path class="e" d="M2025,995.26h461.611M2025,965.017h461.611M2025,935.007h461.611M2025,904.764h461.611M2025,874.754h461.611M2025,844.511h461.611M2025,814.5h461.611M2025,784.258h461.611M2025,754.249h461.611M2025,724h461.611" transform="translate(-1959.32 -676.878)"/></g><g class="f" transform="translate(1811.315 569.163)"><path class="g" d="M2085.07,1093.545h18.99v99.391h-18.99Zm65.88-150.514h18.99v249.9h-18.99Zm66.114,0h18.756v249.9h-18.756Zm65.88,0h18.99v249.9h-18.99Zm65.88,0h18.99v249.9h-18.99Zm66.112,150.514h18.758v99.391h-18.758Zm65.88-100.342h18.992v199.733h-18.992Z" transform="translate(-2071.668 -890.723)"/></g><g class="f" transform="translate(1811.315 569.163)"><path class="h" d="M2166.07,938.054h18.755v87.2H2166.07Zm65.88-171.848h18.755v259.048H2231.95Zm65.88,129.65h18.99v129.4h-18.99ZM2363.944,724H2382.7v301.254h-18.755Zm65.88,42.206h18.755v259.048h-18.755Zm65.88,0h18.99v259.048H2495.7Zm66.114,43.139h18.755v215.909h-18.755Z" transform="translate(-2133.678 -723.041)"/></g><g class="b" transform="translate(1744.955 523.001)"><path class="i" d="M2025,2009h461.611" transform="translate(-1959.32 -1660.624)"/></g><g class="b" transform="translate(1744.955 523.001)"><path class="j" d="M2058.072,1996.719v4.923m65.88-4.923v4.923m65.88-4.923v4.923m66.114-4.923v4.923m65.88-4.923v4.923m65.88-4.923v4.923m66.114-4.923v4.923m32.791-4.923v4.923M2025,1996v6.33m65.9-6.33v6.33m66.112-6.33v6.33m65.88-6.33v6.33m65.88-6.33v6.33m66.114-6.33v6.33m65.88-6.33v6.33m65.849-6.33v6.33" transform="translate(-1959.32 -1650.672)"/></g><g class="b" transform="translate(1744.955 523.001)"><text class="k" transform="translate(78.466 238.094)"><tspan x="0" y="0">33%</tspan></text></g><g class="b" transform="translate(1744.955 523.001)"><text class="k" transform="translate(144.426 87.35)"><tspan x="0" y="0">83%</tspan></text></g><g class="b" transform="translate(1744.955 523.001)"><text class="k" transform="translate(210.383 87.35)"><tspan x="0" y="0">83%</tspan></text></g><g class="b" transform="translate(1744.955 523.001)"><text class="k" transform="translate(276.34 87.35)"><tspan x="0" y="0">83%</tspan></text></g><g class="b" transform="translate(1744.955 523.001)"><text class="k" transform="translate(342.297 87.35)"><tspan x="0" y="0">83%</tspan></text></g><g class="b" transform="translate(1744.955 523.001)"><text class="k" transform="translate(408.254 238.094)"><tspan x="0" y="0">33%</tspan></text></g><g class="b" transform="translate(1744.955 523.001)"><text class="k" transform="translate(474.211 137.754)"><tspan x="0" y="0">66%</tspan></text></g><g class="b" transform="translate(1744.955 523.001)"><text class="l" transform="translate(97.313 250.051)"><tspan x="0" y="0">29%</tspan></text></g><g class="b" transform="translate(1744.955 523.001)"><text class="l" transform="translate(163.27 78.441)"><tspan x="0" y="0">86%</tspan></text></g><g class="b" transform="translate(1744.955 523.001)"><text class="m" transform="translate(229.227 207.852)"><tspan x="0" y="0">43%</tspan></text></g><g class="b" transform="translate(1744.955 523.001)"><text class="l" transform="translate(292.198 36.242)"><tspan x="0" y="0">100%</tspan></text></g><g class="b" transform="translate(1744.955 523.001)"><text class="l" transform="translate(361.141 78.441)"><tspan x="0" y="0">86%</tspan></text></g><g class="b" transform="translate(1744.955 523.001)"><text class="l" transform="translate(427.101 78.441)"><tspan x="0" y="0">86%</tspan></text></g><g class="b" transform="translate(1744.955 523.001)"><text class="l" transform="translate(493.058 121.578)"><tspan x="0" y="0">72%</tspan></text></g><g class="b" transform="translate(1744.955 523.001)"><text class="n" transform="translate(40.888 348.046)"><tspan x="0" y="0">0%</tspan></text></g><g class="b" transform="translate(1744.955 523.001)"><text class="n" transform="translate(34.912 318.038)"><tspan x="0" y="0">10%</tspan></text></g><g class="b" transform="translate(1744.955 523.001)"><text class="n" transform="translate(34.912 287.795)"><tspan x="0" y="0">20%</tspan></text></g><g class="b" transform="translate(1744.955 523.001)"><text class="n" transform="translate(34.912 257.787)"><tspan x="0" y="0">30%</tspan></text></g><g class="b" transform="translate(1744.955 523.001)"><text class="n" transform="translate(34.912 227.544)"><tspan x="0" y="0">40%</tspan></text></g><g class="b" transform="translate(1744.955 523.001)"><text class="n" transform="translate(34.912 197.536)"><tspan x="0" y="0">50%</tspan></text></g><g class="b" transform="translate(1744.955 523.001)"><text class="n" transform="translate(34.912 167.294)"><tspan x="0" y="0">60%</tspan></text></g><g class="b" transform="translate(1744.955 523.001)"><text class="n" transform="translate(34.912 137.285)"><tspan x="0" y="0">70%</tspan></text></g><g class="b" transform="translate(1744.955 523.001)"><text class="n" transform="translate(34.912 107.043)"><tspan x="0" y="0">80%</tspan></text></g><g class="b" transform="translate(1744.955 523.001)"><text class="n" transform="translate(34.912 77.035)"><tspan x="0" y="0">90%</tspan></text></g><g class="b" transform="translate(1744.955 523.001)"><text class="n" transform="translate(28.939 46.792)"><tspan x="0" y="0">100%</tspan></text></g><g class="b" transform="translate(1744.955 523.001)"><text class="n" transform="translate(95.653 360.94)"><tspan x="0" y="0">1</tspan></text></g><g class="b" transform="translate(1744.955 523.001)"><text class="n" transform="translate(161.61 360.94)"><tspan x="0" y="0">2</tspan></text></g><g class="b" transform="translate(1744.955 523.001)"><text class="n" transform="translate(227.567 360.94)"><tspan x="0" y="0">3</tspan></text></g><g class="b" transform="translate(1744.955 523.001)"><text class="n" transform="translate(293.527 360.94)"><tspan x="0" y="0">4</tspan></text></g><g class="b" transform="translate(1744.955 523.001)"><text class="n" transform="translate(359.484 360.94)"><tspan x="0" y="0">5</tspan></text></g><g class="b" transform="translate(1744.955 523.001)"><text class="n" transform="translate(425.441 360.94)"><tspan x="0" y="0">6</tspan></text></g><g class="b" transform="translate(1744.955 523.001)"><text class="n" transform="translate(474.378 360.94)"><tspan x="0" y="0">Average</tspan></text></g><g class="b" transform="translate(1744.955 523.001)"><text class="o" transform="translate(284.269 376.413)"><tspan x="0" y="0">Task</tspan></text></g><g class="b" transform="translate(1744.955 523.001)"><rect class="g" width="4" height="5" transform="translate(549.525 213.999)"/></g><g class="b" transform="translate(1744.955 523.001)"><text class="p" transform="translate(556.985 215.354)"><tspan x="0" y="0">original design</tspan></text></g><g class="b" transform="translate(1744.955 523.001)"><rect class="q" width="4" height="5" transform="translate(549.525 231.999)"/></g><g class="b" transform="translate(1744.955 523.001)"><text class="p" transform="translate(556.985 233.64)"><tspan x="0" y="0">redesign</tspan></text></g><rect class="r" width="19" height="129" transform="translate(1975.48 742)"/></g></svg>