<svg xmlns="http://www.w3.org/2000/svg" xmlns:xlink="http://www.w3.org/1999/xlink" width="1087.162" height="726.906" viewBox="0 0 1087.162 726.906"><defs><style>.a,.c{fill:#fff;}.a,.i{fill-rule:evenodd;}.b{clip-path:url(#c);}.d,.e,.i,.j{fill:none;stroke-linejoin:round;stroke-miterlimit:10;stroke-width:2.292px;}.d{stroke:rgba(204,204,204,0);}.e{stroke:#b7b7b7;}.f{clip-path:url(#f);}.g{fill:#a6a6a6;}.h,.l{fill:#487c72;}.i,.j{stroke:#000;}.k{fill:#7f7f7f;}.k,.l,.n,.o{font-size:19px;}.k,.l{font-family:Arial-BoldMT, Arial;font-weight:700;}.m{font-size:20px;}.m,.n,.o{font-family:ArialMT, Arial;}.o{fill:#1a1a1a;}.p{filter:url(#a);}</style><filter id="a" x="0" y="0" width="1087.162" height="726.906" filterUnits="userSpaceOnUse"><feOffset dy="3" input="SourceAlpha"/><feGaussianBlur stdDeviation="24" result="b"/><feFlood flood-opacity="0.102"/><feComposite operator="in" in2="b"/><feComposite in="SourceGraphic"/></filter><clipPath id="c"><rect width="942" height="583" transform="translate(0 0.001)"/></clipPath><clipPath id="f"><rect width="613" height="432" transform="translate(0.31 -0.46)"/></clipPath></defs><g transform="translate(-1033 -504.949)"><g class="p" transform="matrix(1, 0, 0, 1, 1033, 504.95)"><path class="a" d="M1105,594.944A20.944,20.944,0,0,1,1125.943,574h901.275a20.943,20.943,0,0,1,20.943,20.944v541.017a20.943,20.943,0,0,1-20.943,20.943H1125.943A20.943,20.943,0,0,1,1105,1135.961Z" transform="translate(-1033 -505)"/></g><g class="b" transform="translate(1105 573.702)"><rect class="c" width="613" height="430" transform="translate(110 61.001)"/></g><g class="b" transform="translate(1105 573.702)"><path class="d" d="M1345,1138.412h612.621M1345,1129.726h612.621M1345,1121.039h612.621M1345,1112.81h612.621M1345,1095.437h612.621M1345,1086.751h612.621M1345,1078.064h612.621M1345,1069.835h612.621M1345,1052.462h612.621M1345,1043.776h612.621M1345,1035.09h612.621M1345,1026.86h612.621M1345,1009.483h612.621M1345,1000.8h612.621M1345,992.11h612.621M1345,983.881h612.621M1345,966.508h612.621M1345,957.821h612.621M1345,949.135h612.621M1345,940.906h612.621M1345,923.533h612.621M1345,914.847h612.621M1345,906.16h612.621M1345,897.931h612.621M1345,880.554h612.621M1345,871.867h612.621M1345,863.181h612.621M1345,854.951h612.621M1345,837.579h612.621M1345,828.893h612.621M1345,820.206h612.621M1345,811.977h612.621M1345,794.6h612.621M1345,785.916h612.621M1345,777.687h612.621M1345,769h612.621M1345,751.627h612.621M1345,742.94h612.621M1345,734.71h612.621M1345,726.024h612.621" transform="translate(-1235.277 -656.274)"/></g><g class="b" transform="translate(1105 573.702)"><path class="e" d="M1345,1093.8h612.621M1345,1050.822h612.621M1345,1007.843h612.621M1345,964.868h612.621M1345,921.893h612.621M1345,878.918h612.621M1345,835.939h612.621M1345,792.963h612.621M1345,749.987h612.621M1345,707h612.621" transform="translate(-1235.277 -645.948)"/></g><g class="f" transform="translate(1214.69 634.163)"><rect class="g" width="124" height="233" transform="translate(91.31 197.54)"/></g><g class="f" transform="translate(1214.69 634.163)"><rect class="h" width="123" height="385" transform="translate(398.31 45.54)"/></g><g class="b" transform="translate(1105 573.702)"><path class="i" d="M1345,1647h612.621" transform="translate(-1235.277 -1156.198)"/></g><g class="b" transform="translate(1105 573.702)"><path class="j" d="M1498.183,1634.394v9.6m306.32-9.6v9.6m153.119-9.6v9.6M1345,1633v12.8m306.342-12.8v12.8m306.279-12.8v12.8" transform="translate(-1235.277 -1148.599)"/></g><g class="b" transform="translate(1105 573.702)"><text class="k" transform="translate(242.424 241.723)"><tspan x="0" y="0">54.2</tspan></text></g><g class="b" transform="translate(1105 573.702)"><text class="l" transform="translate(548.794 89.482)"><tspan x="0" y="0">89.6</tspan></text></g><g class="b" transform="translate(1105 573.702)"><text class="m" transform="translate(79.947 496.458)"><tspan x="0" y="0">0</tspan></text></g><g class="b" transform="translate(1105 573.702)"><text class="m" transform="translate(68.298 453.483)"><tspan x="0" y="0">10</tspan></text></g><g class="b" transform="translate(1105 573.702)"><text class="m" transform="translate(68.298 410.508)"><tspan x="0" y="0">20</tspan></text></g><g class="b" transform="translate(1105 573.702)"><text class="m" transform="translate(68.298 367.533)"><tspan x="0" y="0">30</tspan></text></g><g class="b" transform="translate(1105 573.702)"><text class="m" transform="translate(68.298 324.558)"><tspan x="0" y="0">40</tspan></text></g><g class="b" transform="translate(1105 573.702)"><text class="m" transform="translate(68.298 281.583)"><tspan x="0" y="0">50</tspan></text></g><g class="b" transform="translate(1105 573.702)"><text class="m" transform="translate(68.298 238.608)"><tspan x="0" y="0">60</tspan></text></g><g class="b" transform="translate(1105 573.702)"><text class="m" transform="translate(68.298 195.633)"><tspan x="0" y="0">70</tspan></text></g><g class="b" transform="translate(1105 573.702)"><text class="m" transform="translate(68.298 152.658)"><tspan x="0" y="0">80</tspan></text></g><g class="b" transform="translate(1105 573.702)"><text class="m" transform="translate(68.298 109.683)"><tspan x="0" y="0">90</tspan></text></g><g class="b" transform="translate(1105 573.702)"><text class="n" transform="translate(56.649 65.708)"><tspan x="0" y="0">100</tspan></text></g><g class="b" transform="translate(1105 573.702)"><text class="n" transform="translate(192.944 520.145)"><tspan x="0" y="0">Original design</tspan></text></g><g class="b" transform="translate(1105 573.702)"><text class="n" transform="translate(524.925 520.145)"><tspan x="0" y="0">Redesign</tspan></text></g><g class="b" transform="translate(1105 573.702)"><text class="n" transform="translate(43.718 327.588) rotate(-90)"><tspan x="0" y="0">SUS Score</tspan></text></g><g class="b" transform="translate(1105 573.702)"><text class="n" transform="translate(393.294 550.319)"><tspan x="0" y="0">Task</tspan></text></g><g class="b" transform="translate(1105 573.702)"><rect class="g" width="10" height="10" transform="translate(767 269.001)"/></g><g class="b" transform="translate(1105 573.702)"><text class="o" transform="translate(782.048 278.754)"><tspan x="0" y="0">Original design</tspan></text></g><g class="b" transform="translate(1105 573.702)"><rect class="h" width="10" height="10" transform="translate(767 304.001)"/></g><g class="b" transform="translate(1105 573.702)"><text class="o" transform="translate(782.048 314.414)"><tspan x="0" y="0">Redesign</tspan></text></g></g></svg>