<svg xmlns="http://www.w3.org/2000/svg" xmlns:xlink="http://www.w3.org/1999/xlink" width="1102.788" height="719.273" viewBox="0 0 1102.788 719.273"><defs><style>.a{fill:#fff;}.a,.g{fill-rule:evenodd;}.b{clip-path:url(#c);}.c,.g{fill:none;stroke:#d9d9d9;stroke-linejoin:round;stroke-miterlimit:10;stroke-width:3.438px;}.d{clip-path:url(#d);}.e{fill:#a6a6a6;}.f,.i{fill:#487c72;}.h{fill:#7f7f7f;}.h,.i,.j{font-size:22px;}.h,.i{font-family:Arial-BoldMT, Arial;font-weight:700;}.j,.k{fill:#595959;font-family:ArialMT, Arial;}.k{font-size:25px;}.l{filter:url(#a);}</style><filter id="a" x="0" y="0" width="1102.788" height="719.273" filterUnits="userSpaceOnUse"><feOffset dy="3" input="SourceAlpha"/><feGaussianBlur stdDeviation="24" result="b"/><feFlood flood-opacity="0.102"/><feComposite operator="in" in2="b"/><feComposite in="SourceGraphic"/></filter><clipPath id="c"><rect width="959" height="575" transform="translate(-0.212 -0.001)"/></clipPath><clipPath id="d"><rect width="779" height="379" transform="translate(-0.059 0.421)"/></clipPath></defs><g transform="translate(-2316 -770.941)"><g class="l" transform="matrix(1, 0, 0, 1, 2316, 770.94)"><path class="a" d="M2388,866.63A26.631,26.631,0,0,1,2414.631,840h905.525a26.631,26.631,0,0,1,26.631,26.63v522.012a26.632,26.632,0,0,1-26.631,26.631H2414.631A26.632,26.632,0,0,1,2388,1388.642Z" transform="translate(-2316 -771)"/></g><g class="b" transform="translate(2388 839.4)"><path class="c" d="M2604.5,1301.774h776.909M2604.5,1247.733h776.909M2604.5,1193.686h776.909M2604.5,1139.646h776.909M2604.5,1085.6h776.909M2604.5,1031.564h776.909M2604.5,977.5h776.909" transform="translate(-2478.696 -897.058)"/></g><g class="d" transform="translate(2513.847 919.978)"><path class="e" d="M2714.09,1294.245H2772.2v80.742H2714.09Zm259.169-189.439h58.114v270.181h-58.114Zm259.175-80.776h57.527v350.957h-57.527Z" transform="translate(-2650.451 -997.128)"/></g><g class="d" transform="translate(2513.847 919.978)"><path class="f" d="M3287.11,1582.05h58.108v26.7H3287.11Zm258.588,0h58.114v26.7H3545.7Z" transform="translate(-2890.499 -1230.892)"/></g><g class="b" transform="translate(2388 839.4)"><path class="g" d="M2604.5,1628.5h776.909" transform="translate(-2478.696 -1169.772)"/></g><g class="b" transform="translate(2388 839.4)"><text class="h" transform="translate(211.921 359.315)"><tspan x="0" y="0">3</tspan></text></g><g class="b" transform="translate(2388 839.4)"><text class="h" transform="translate(464.262 169.882)"><tspan x="0" y="0">10</tspan></text></g><g class="b" transform="translate(2388 839.4)"><text class="h" transform="translate(723.269 89.111)"><tspan x="0" y="0">13</tspan></text></g><g class="b" transform="translate(2388 839.4)"><text class="i" transform="translate(285.672 440.086)"><tspan x="0" y="0">0</tspan></text></g><g class="b" transform="translate(2388 839.4)"><text class="i" transform="translate(544.679 413.356)"><tspan x="0" y="0">1</tspan></text></g><g class="b" transform="translate(2388 839.4)"><text class="i" transform="translate(803.685 413.356)"><tspan x="0" y="0">1</tspan></text></g><g class="b" transform="translate(2388 839.4)"><text class="j" transform="translate(92.015 464.491)"><tspan x="0" y="0">0</tspan></text></g><g class="b" transform="translate(2388 839.4)"><text class="j" transform="translate(92.015 410.45)"><tspan x="0" y="0">2</tspan></text></g><g class="b" transform="translate(2388 839.4)"><text class="j" transform="translate(92.015 356.41)"><tspan x="0" y="0">4</tspan></text></g><g class="b" transform="translate(2388 839.4)"><text class="j" transform="translate(92.015 302.369)"><tspan x="0" y="0">6</tspan></text></g><g class="b" transform="translate(2388 839.4)"><text class="j" transform="translate(92.015 248.328)"><tspan x="0" y="0">8</tspan></text></g><g class="b" transform="translate(2388 839.4)"><text class="j" transform="translate(78.684 194.287)"><tspan x="0" y="0">10</tspan></text></g><g class="b" transform="translate(2388 839.4)"><text class="j" transform="translate(78.684 140.247)"><tspan x="0" y="0">12</tspan></text></g><g class="b" transform="translate(2388 839.4)"><text class="j" transform="translate(78.684 86.206)"><tspan x="0" y="0">14</tspan></text></g><g class="b" transform="translate(2388 839.4)"><text class="j" transform="translate(193.507 492.964)"><tspan x="0" y="0">intervention</tspan></text></g><g class="b" transform="translate(2388 839.4)"><text class="j" transform="translate(483.183 492.964)"><tspan x="0" y="0">errors</tspan></text></g><g class="b" transform="translate(2388 839.4)"><text class="j" transform="translate(750.824 492.964)"><tspan x="0" y="0">total</tspan></text></g><g class="b" transform="translate(2388 839.4)"><text class="k" transform="translate(63.641 305.612) rotate(-90)"><tspan x="0" y="0">Times</tspan></text></g><g class="b" transform="translate(2388 839.4)"><rect class="e" width="11" height="12" transform="translate(330.788 531.999)"/></g><g class="b" transform="translate(2388 839.4)"><text class="j" transform="translate(347.436 544.1)"><tspan x="0" y="0">original design</tspan></text></g><g class="b" transform="translate(2388 839.4)"><rect class="f" width="13" height="12" transform="translate(528.788 531.999)"/></g><g class="b" transform="translate(2388 839.4)"><text class="j" transform="translate(545.736 544.1)"><tspan x="0" y="0">redesign</tspan></text></g></g></svg>