<svg xmlns="http://www.w3.org/2000/svg" xmlns:xlink="http://www.w3.org/1999/xlink" width="1103" height="718.914" viewBox="0 0 1103 718.914"><defs><style>.a{fill:#fff;}.a,.g{fill-rule:evenodd;}.b{clip-path:url(#c);}.c,.g{fill:none;stroke:#d9d9d9;stroke-linejoin:round;stroke-miterlimit:10;stroke-width:3.438px;}.d{clip-path:url(#d);}.e{fill:#a6a6a6;}.f,.i{fill:#487c72;}.h{fill:#7f7f7f;}.h,.i,.j{font-size:18px;}.h,.i{font-family:Arial-BoldMT, Arial;font-weight:700;}.j,.k{fill:#595959;font-family:ArialMT, Arial;}.k{font-size:20px;}.l{filter:url(#a);}</style><filter id="a" x="0" y="0" width="1103" height="718.914" filterUnits="userSpaceOnUse"><feOffset dy="3" input="SourceAlpha"/><feGaussianBlur stdDeviation="24" result="b"/><feFlood flood-opacity="0.102"/><feComposite operator="in" in2="b"/><feComposite in="SourceGraphic"/></filter><clipPath id="c"><rect width="959" height="576"/></clipPath><clipPath id="d"><rect width="761" height="451" transform="translate(-0.405 -0.113)"/></clipPath></defs><g transform="translate(-1833 -770.887)"><g class="l" transform="matrix(1, 0, 0, 1, 1833, 770.89)"><path class="a" d="M1905,861.634A21.634,21.634,0,0,1,1926.637,840h915.732A21.632,21.632,0,0,1,2864,861.634v531.643a21.632,21.632,0,0,1-21.631,21.636H1926.637A21.633,21.633,0,0,1,1905,1393.277Z" transform="translate(-1833 -771)"/></g><g class="b" transform="translate(1905 839.002)"><path class="c" d="M2279.5,1409.915h758.224M2279.5,1365.035h758.224M2279.5,1320.151h758.224M2279.5,1274.8h758.224M2279.5,1229.92h758.224M2279.5,1185.041h758.224M2279.5,1140.157h758.224M2279.5,1095.278h758.224M2279.5,1050.4h758.224M2279.5,1005.5h758.224" transform="translate(-2102.581 -926.431)"/></g><g class="d" transform="translate(2081.405 918.113)"><rect class="e" width="119" height="419" transform="translate(131.595 30.887)"/></g><g class="d" transform="translate(2081.405 918.113)"><rect class="f" width="119" height="450" transform="translate(509.595 -0.113)"/></g><g class="b" transform="translate(1905 839.002)"><path class="g" d="M2279.5,1956.5h758.224" transform="translate(-2102.581 -1428.166)"/></g><g class="b" transform="translate(1905 839.002)"><text class="h" transform="translate(333.595 94.832)"><tspan x="0" y="0">93.06%</tspan></text></g><g class="b" transform="translate(1905 839.002)"><text class="i" transform="translate(721.561 58.936)"><tspan x="0" y="0">100%</tspan></text></g><g class="b" transform="translate(1905 839.002)"><text class="j" transform="translate(105.145 532.76)"><tspan x="0" y="0">0.00%</tspan></text></g><g class="b" transform="translate(1905 839.002)"><text class="j" transform="translate(94.308 487.881)"><tspan x="0" y="0">10.00%</tspan></text></g><g class="b" transform="translate(1905 839.002)"><text class="j" transform="translate(94.308 443.002)"><tspan x="0" y="0">20.00%</tspan></text></g><g class="b" transform="translate(1905 839.002)"><text class="j" transform="translate(94.308 398.122)"><tspan x="0" y="0">30.00%</tspan></text></g><g class="b" transform="translate(1905 839.002)"><text class="j" transform="translate(94.308 353.243)"><tspan x="0" y="0">40.00%</tspan></text></g><g class="b" transform="translate(1905 839.002)"><text class="j" transform="translate(94.308 308.364)"><tspan x="0" y="0">50.00%</tspan></text></g><g class="b" transform="translate(1905 839.002)"><text class="j" transform="translate(94.308 263.012)"><tspan x="0" y="0">60.00%</tspan></text></g><g class="b" transform="translate(1905 839.002)"><text class="j" transform="translate(94.308 218.133)"><tspan x="0" y="0">70.00%</tspan></text></g><g class="b" transform="translate(1905 839.002)"><text class="j" transform="translate(94.308 173.253)"><tspan x="0" y="0">80.00%</tspan></text></g><g class="b" transform="translate(1905 839.002)"><text class="j" transform="translate(94.308 128.374)"><tspan x="0" y="0">90.00%</tspan></text></g><g class="b" transform="translate(1905 839.002)"><text class="j" transform="translate(83.471 83.495)"><tspan x="0" y="0">100.00%</tspan></text></g><g class="b" transform="translate(1905 839.002)"><text class="j" transform="translate(303.805 555.908)"><tspan x="0" y="0">original design</tspan></text></g><g class="b" transform="translate(1905 839.002)"><text class="j" transform="translate(708.229 555.908)"><tspan x="0" y="0">redesign</tspan></text></g><g class="b" transform="translate(1905 839.002)"><text class="k" transform="translate(70.547 366.06) rotate(-90)"><tspan x="0" y="0">S</tspan></text></g><g class="b" transform="translate(1905 839.002)"><text class="k" transform="translate(70.547 351.888) rotate(-90)"><tspan x="0" y="0">uccess rate</tspan></text></g></g></svg>