<svg xmlns="http://www.w3.org/2000/svg" width="1575" height="133" viewBox="0 0 1575 133"><defs><style>.a,.b{fill:#4e6863;font-size:20px;}.a{font-family:NotoSansSC-Regular, Noto Sans SC;}.b{font-family:NotoSansSC-Black, Noto Sans SC;font-weight:800;}.c{fill:none;stroke:#c4c4c4;stroke-linecap:square;stroke-linejoin:round;stroke-width:10px;}</style></defs><g transform="translate(-205 -20169)"><text class="a" transform="translate(224 20192)"><tspan x="0" y="0">Task 1 </tspan></text><text class="a" transform="translate(525 20192)"><tspan x="0" y="0">Task 2</tspan></text><text class="a" transform="translate(905 20192)"><tspan x="0" y="0">Task 3</tspan></text><text class="a" transform="translate(1260 20192)"><tspan x="0" y="0">Task 4</tspan></text><text class="a" transform="translate(1612 20192)"><tspan x="0" y="0">Task 5</tspan></text><text class="b" transform="translate(205 20281)"><tspan x="0" y="0">Find a pet</tspan></text><text class="b" transform="translate(480 20267)"><tspan x="0" y="0">Learn the </tspan><tspan x="0" y="29">adoption process</tspan></text><text class="b" transform="translate(859 20267)"><tspan x="0" y="0">Find the </tspan><tspan x="0" y="29">application form</tspan></text><text class="b" transform="translate(1176 20244)"><tspan x="0" y="23">Learn the Hours and </tspan><tspan x="0" y="52">location of the shelter</tspan></text><text class="b" transform="translate(1515 20244)"><tspan x="0" y="23">Find solutions and advice </tspan><tspan x="0" y="52">for behavior issue</tspan></text><path class="c" d="M0,0,14.557,14.557,0,29.114" transform="translate(388.058 20258)"/><path class="c" d="M0,0,14.557,14.557,0,29.114" transform="translate(764.071 20258)"/><path class="c" d="M0,0,14.557,14.557,0,29.114" transform="translate(1093.534 20258)"/><path class="c" d="M0,0,14.557,14.557,0,29.114" transform="translate(1453.978 20258)"/></g></svg>