<svg xmlns="http://www.w3.org/2000/svg" width="1590" height="841" viewBox="0 0 1590 841"><defs><style>.a,.c{fill:#4e6863;}.a{font-size:32px;font-family:NotoSansSC-Regular, Noto Sans SC;}.b,.c{font-family:NotoSansSC-Black, Noto Sans SC;font-weight:800;}.c{font-size:48px;}</style></defs><g transform="translate(-162 -10864)"><text class="a" transform="translate(416 10901)"><tspan x="0" y="0">&quot;Big dogs only. </tspan><tspan class="b" y="0">A big dog is your friend and a small dog is a pet</tspan><tspan y="0">.&quot;</tspan></text><text class="a" transform="translate(181 11147)"><tspan x="0" y="0">&quot;When we have family vocation, we need to </tspan><tspan class="b" y="0">find someone to take care of him</tspan><tspan y="0">&quot;</tspan></text><text class="a" transform="translate(175 11058)"><tspan x="0" y="0">&quot;I think </tspan><tspan class="b" y="0">health problem</tspan><tspan y="0" xml:space="preserve"> is the biggest challenge&quot;</tspan></text><text class="a" transform="translate(162 11586)"><tspan x="0" y="0">“I hope there are can be some sort of </tspan><tspan class="b" y="0">videos </tspan><tspan y="0">rather than only photos, so I can see how they eat and play.&quot;</tspan></text><text class="a" transform="translate(861 10973)"><tspan x="0" y="0">&quot;I have experienced it (pet breeding) </tspan><tspan class="b" y="0">first-hand all my life</tspan><tspan y="0">&quot;</tspan></text><text class="a" transform="translate(309 10971)"><tspan x="0" y="0">&quot;</tspan><tspan class="b" y="0">handsome</tspan><tspan y="0" xml:space="preserve"> and </tspan><tspan class="b" y="0">well-behaved</tspan><tspan y="0">&quot;</tspan></text><text class="a" transform="translate(960 11059)"><tspan x="0" y="0">&quot;I </tspan><tspan class="b" y="0">googled</tspan><tspan y="0" xml:space="preserve"> &quot;animal shelters in NY/Chicago &quot;&quot;</tspan></text><text class="a" transform="translate(355 11235)"><tspan x="0" y="0">&quot;It (official contents) is like dead water. It&apos;s fixed but information from </tspan><tspan class="b" y="0">community is vital</tspan><tspan y="0">&quot;</tspan></text><text class="a" transform="translate(264 11314)"><tspan x="0" y="0">&quot;</tspan><tspan class="b" y="0">The younger</tspan><tspan y="0" xml:space="preserve"> the cat, </tspan><tspan class="b" y="0">the better</tspan><tspan y="0">. You can develop a relationship with him/her&quot;</tspan></text><text class="a" transform="translate(382 11399)"><tspan x="0" y="0">&quot;It has to be </tspan><tspan class="b" y="0">cute </tspan><tspan y="0">and </tspan><tspan class="b" y="0">well-behaved</tspan><tspan y="0">, but no furniture damaging and weird sound.&quot;</tspan></text><text class="a" transform="translate(476 11488)"><tspan x="0" y="0">&quot;</tspan><tspan class="b" y="0">My cat needs accompany</tspan><tspan y="0">, but I&apos;m always absent because of my job.&quot;</tspan></text><text class="c" transform="translate(935 11690)"><tspan x="0" y="0">...</tspan></text></g></svg>