<svg xmlns="http://www.w3.org/2000/svg" xmlns:xlink="http://www.w3.org/1999/xlink" width="500" height="248" viewBox="0 0 500 248">
  <defs>
    <style>
      .cls-1 {
        clip-path: url(#clip-Design_Icon);
      }

      .cls-2 {
        fill: #ad9bcf;
        stroke: #ad9bcf;
      }

      .cls-3 {
        fill: #3e118d;
        font-size: 40px;
        font-family: NotoSansSC-Thin, Noto Sans SC;
        font-weight: 200;
      }

      .cls-4 {
        fill: #fff;
      }
    </style>
    <clipPath id="clip-Design_Icon">
      <rect width="500" height="248"/>
    </clipPath>
  </defs>
  <g id="Design_Icon" class="cls-1">
    <rect class="cls-4" width="500" height="248"/>
    <g id="noun_design_2472937" transform="translate(199.001 29.4)">
      <g id="Group_1" data-name="Group 1" transform="translate(1.999 2)">
        <path id="Path_2" data-name="Path 2" class="cls-2" d="M30.951,85.115,85.119,30.946,73.052,18.879,18.884,73.048ZM49.37,74.138,32.811,90.7l-.883.582L5.614,101.8a2.631,2.631,0,0,1-3.42-3.42L12.719,72.071l.583-.884L29.861,54.629,2.776,27.544a2.631,2.631,0,0,1,0-3.721L23.827,2.772a2.631,2.631,0,0,1,3.721,0L54.633,29.856,80.175,4.314a7.888,7.888,0,0,1,11.163,0l8.344,8.344a7.888,7.888,0,0,1,0,11.165L74.142,49.366,101.227,76.45a2.633,2.633,0,0,1,0,3.722L80.176,101.223a2.633,2.633,0,0,1-3.722,0Zm3.721-3.721L78.315,95.64l17.33-17.33-6.8-6.8-3.4,3.4a2.632,2.632,0,0,1-3.722-3.722l3.4-3.4-6.8-6.8L69.65,69.646a2.632,2.632,0,0,1-3.722-3.722l8.665-8.665-4.173-4.173-17.33,17.33ZM33.582,50.907l17.33-17.33L46.739,29.4l-3.4,3.4a2.631,2.631,0,1,1-3.721-3.721l3.4-3.4-6.8-6.8-8.665,8.665a2.631,2.631,0,1,1-3.721-3.721l8.665-8.665-6.8-6.8L8.358,25.684,33.582,50.907ZM26.268,87.875,16.123,77.73,9.36,94.638l16.908-6.763ZM76.774,15.158,88.84,27.225,95.963,20.1a2.626,2.626,0,0,0,0-3.72L87.614,8.033a2.625,2.625,0,0,0-3.718,0l-7.123,7.123Z" transform="translate(-1.999 -2)"/>
      </g>
    </g>
    <text id="Design" class="cls-3" transform="translate(250 192)"><tspan x="-59.68" y="0">Design</tspan></text>
  </g>
</svg>
