<svg xmlns="http://www.w3.org/2000/svg" xmlns:xlink="http://www.w3.org/1999/xlink" viewBox="0 0 288.98 274.55"><defs><style>.cls-1{fill:#00857e;}.cls-2{fill:#757575;}.cls-3{fill:url(#linear-gradient);}</style><linearGradient id="linear-gradient" x1="159.97" y1="72.33" x2="33.92" y2="290.66" gradientUnits="userSpaceOnUse"><stop offset="0" stop-color="#001f1d"/><stop offset="0.5" stop-color="#00a39b"/></linearGradient></defs><title>Asset 1</title><g id="Layer_2" data-name="Layer 2"><g id="Layer_1-2" data-name="Layer 1"><g id="_1" data-name="1"><path class="cls-1" d="M111,.55c-58,9-44,40-56,44,0,0-4,5-23,3-5.35-.57-10-1-10,5,0,4.57,8.75,7.52,29.8,9.66L50.06,62h53.56c65.09.56,110.24,34.9,108.38,94.52-2,64-45,89.43-105.92,89.43H47v-13.5c-15.33-.46-23.93-3.08-47,7.07,21,5,20,13,6,35,7,0,12-3,24.22-17.19S61,246.55,61,246.55s33,10,52.71,10c90.49,0,135.16-67.4,135.16-134.29C248.87,54.72,190-6.45,111,.55Z"/><path class="cls-2" d="M49,232.53h0Z"/><path class="cls-3" d="M103.62,62H50.06l3.56.36C76,64.55,74.26,63.73,84.13,64.64c57.13-.48,85.58,41.59,85.58,83.9,0,42.07-28.21,84.15-85.34,84.15A316.62,316.62,0,0,1,51,232.55l-2,0h-.42l-1.43,0c-15.43-.46-24-3.12-47.15,7.06,21,5,20,13,6,35,7,0,12-3,24.22-17.19A31.84,31.84,0,0,1,49,246.83V246h57.08C167,246,210,220.55,212,156.55,213.86,96.93,168.71,62.59,103.62,62Z"/><circle class="cls-1" cx="102.22" cy="153.29" r="31.89"/></g><path class="cls-1" d="M249.67,70.53c-3-1.38-4-.25-2.18,2.52,0,0,3.39,5.23,8.18,21.9a97.81,97.81,0,0,1,3.57,31.41c-.27,3.28.91,3.67,2.63.85,0,0,12-19.69,20.07-16,7.29,3.34,7.62,5.94,6.63.43C284,86.46,249.67,70.53,249.67,70.53Z"/></g></g></svg>