<svg xmlns="http://www.w3.org/2000/svg" xmlns:xlink="http://www.w3.org/1999/xlink" viewBox="0 0 108.03 134.29"><defs><style>.cls-1,.cls-3,.cls-4,.cls-5,.cls-6,.cls-7{fill:none;}.cls-2{fill:#ffe53b;}.cls-3,.cls-4,.cls-5,.cls-6,.cls-7{stroke:#ffe53b;stroke-linecap:round;}.cls-3{stroke-width:6px;}.cls-4{stroke-width:8px;}.cls-5{stroke-width:4px;}.cls-6{stroke-width:2px;}.cls-7{stroke-width:3px;}.cls-8{clip-path:url(#clip-path);}.cls-9{fill:#ccb51b;}</style><clipPath id="clip-path"><path class="cls-1" d="M14.42,55.54C9.74,55.83,6.2,61,6.51,67.07s4.35,10.75,9,10.45S23.77,72.07,23.46,66,19.1,55.24,14.42,55.54Zm69.52-8.31C96,46.5,105,38.08,104,28.42S92.38,11.53,80.28,12.27s-21.1,9.15-20.08,18.8S71.84,48,83.94,47.23Zm.38,46.35c-12.11-.73-22.74,6.49-23.75,16.13s8,18,20.08,18.77,22.73-6.49,23.75-16.12S96.42,94.31,84.32,93.58Zm-45.87-18c-7,.18-10.69,6.82-8.19,14.83s10.22,14.34,17.25,14.16S58.2,97.69,55.7,89.69,45.48,75.34,38.45,75.53Zm9.2-37c-6.94-.18-14.56,6.17-17,14.18s1.16,14.66,8.1,14.85,14.56-6.16,17-14.18S54.59,38.7,47.65,38.51Z"/></clipPath></defs><title>Asset 3</title><g id="Layer_2" data-name="Layer 2"><g id="Layer_1-2" data-name="Layer 1"><g id="Group_13" data-name="Group 13"><path id="Path_68" data-name="Path 68" class="cls-2" d="M53.5,0A53.5,53.5,0,0,1,107,53.5c0,14.74-26.64,19.07-53.5,19.1C26.86,72.63,0,68.3,0,53.5A53.5,53.5,0,0,1,53.5,0Z"/><path id="Path_70" data-name="Path 70" class="cls-3" d="M14.16,86.52c5.76,3.66,16.36,5.41,22.21,5.2"/><path id="Path_71" data-name="Path 71" class="cls-4" d="M71.23,81.14C82.42,82,98.63,77,104,72.36"/><path id="Path_69" data-name="Path 69" class="cls-4" d="M5.8,72c9,6.14,29.4,9.8,41,9"/><path id="Path_72" data-name="Path 72" class="cls-3" d="M53.52,94C67.2,95.8,86.3,91.4,92.8,88.4"/><path id="Path_73" data-name="Path 73" class="cls-5" d="M30.42,102c9,3.4,19.94,3.68,26.33,3.18"/><path id="Path_75" data-name="Path 75" class="cls-6" d="M20,106.41c1.71,1,5.65,2.16,10.58,2.43"/><path id="Path_83" data-name="Path 83" class="cls-6" d="M43.83,121.25c1.84.7,5.92,1.25,10.84.75"/><path id="Path_87" data-name="Path 87" class="cls-6" d="M48.83,129.25c1.84.7,5.92,1.25,10.84.75"/><path id="Path_88" data-name="Path 88" class="cls-6" d="M68,133.29c2,.06,6-.74,10.49-2.81"/><path id="Path_85" data-name="Path 85" class="cls-7" d="M29.94,113.5c1.72,1,5.68,2.06,10.62,2.25"/><path id="Path_84" data-name="Path 84" class="cls-6" d="M76.38,112.55c1.84.09,7.15-1.81,9.24-3.2"/><path id="Path_89" data-name="Path 89" class="cls-6" d="M89.06,104a15.58,15.58,0,0,0,5.13-2.06"/><path id="Path_93" data-name="Path 93" class="cls-6" d="M19.53,114.25a8.37,8.37,0,0,0,4.5.92"/><path id="Path_96" data-name="Path 96" class="cls-6" d="M32.92,122.45a9.26,9.26,0,0,0,5.26.43"/><path id="Path_76" data-name="Path 76" class="cls-7" d="M12.21,95.68c2.21,1.45,8.21,3,12,2.89"/><path id="Path_79" data-name="Path 79" class="cls-6" d="M63.81,122c3.91,1.16,11.14-.68,13.53-2.41"/><path id="Path_80" data-name="Path 80" class="cls-6" d="M48.84,115.93A39.27,39.27,0,0,0,66.22,115"/><path id="Path_81" data-name="Path 81" class="cls-5" d="M71.42,105.47c1.84,0,9.69-1.43,11.85-2.57"/></g><g class="cls-8"><g id="Group_13-2" data-name="Group 13"><g id="Path_68-2" data-name="Path 68"><path class="cls-9" d="M53.5,0A53.5,53.5,0,0,1,107,53.5c0,14.74-26.64,19.07-53.5,19.1C26.86,72.63,0,68.3,0,53.5A53.5,53.5,0,0,1,53.5,0Z"/></g><g id="Path_70-2" data-name="Path 70"><path class="cls-9" d="M35.46,94.73c-6,0-16.63-1.69-22.91-5.68A3,3,0,1,1,15.77,84c4.81,3.05,14.66,4.94,20.49,4.73a3,3,0,1,1,.22,6C36.16,94.73,35.82,94.73,35.46,94.73Z"/></g><g id="Path_71-2" data-name="Path 71"><path class="cls-9" d="M73.72,85.23c-1,0-1.88,0-2.78-.1a4,4,0,0,1,.57-8c10.54.76,25.65-4.2,29.93-7.84a4,4,0,1,1,5.18,6.09C101,80.17,85.78,85.23,73.72,85.23Z"/></g><g id="Path_69-2" data-name="Path 69"><path class="cls-9" d="M43.38,85.11c-12.75,0-31.11-3.82-39.84-9.81a4,4,0,0,1,4.53-6.6c8,5.52,27.61,9.06,38.46,8.31a4,4,0,0,1,.55,8C45.92,85.07,44.67,85.11,43.38,85.11Z"/></g><g id="Path_72-2" data-name="Path 72"><path class="cls-9" d="M60.4,97.41A55,55,0,0,1,53.13,97,3,3,0,1,1,53.92,91C67,92.75,85.65,88.4,91.54,85.68a3,3,0,1,1,2.52,5.44C88.5,93.69,73.58,97.41,60.4,97.41Z"/></g><g id="Path_73-2" data-name="Path 73"><path class="cls-9" d="M51.58,107.37c-6.81,0-15-.91-21.87-3.5a2,2,0,0,1,1.42-3.74c8.14,3.08,18.49,3.6,25.46,3.05a2,2,0,1,1,.31,4C55.28,107.3,53.48,107.37,51.58,107.37Z"/></g><g id="Path_75-2" data-name="Path 75"><path class="cls-9" d="M30.54,109.84h-.05c-5-.28-9.15-1.49-11-2.56a1,1,0,1,1,1-1.74c1.61.93,5.48,2,10.14,2.31a1,1,0,0,1-.06,2Z"/></g><g id="Path_83-2" data-name="Path 83"><path class="cls-9" d="M50.93,123.19a22.79,22.79,0,0,1-7.45-1,1,1,0,1,1,.71-1.86c1.74.66,5.73,1.16,10.38.69a1,1,0,0,1,1.09.89,1,1,0,0,1-.89,1.1C53.43,123.13,52.13,123.19,50.93,123.19Z"/></g><g id="Path_87-2" data-name="Path 87"><path class="cls-9" d="M55.93,131.19a22.79,22.79,0,0,1-7.45-1,1,1,0,1,1,.71-1.86c1.74.66,5.73,1.16,10.38.69a1,1,0,0,1,1.09.89,1,1,0,0,1-.89,1.1C58.43,131.13,57.14,131.19,55.93,131.19Z"/></g><g id="Path_88-2" data-name="Path 88"><path class="cls-9" d="M68.25,134.29H68a1,1,0,1,1,.06-2c1.87.07,5.8-.77,10-2.72a1,1,0,0,1,.84,1.81A28.81,28.81,0,0,1,68.25,134.29Z"/></g><g id="Path_85-2" data-name="Path 85"><path class="cls-9" d="M40.56,117.25H40.5c-5.09-.2-9.34-1.36-11.29-2.44a1.5,1.5,0,1,1,1.45-2.62c1.58.87,5.38,1.89,10,2.06a1.5,1.5,0,0,1-.06,3Z"/></g><g id="Path_84-2" data-name="Path 84"><path class="cls-9" d="M76.49,113.56h-.16a1,1,0,0,1-1-1,1,1,0,0,1,1.05-1c1.55.1,6.64-1.71,8.63-3a1,1,0,1,1,1.11,1.67C84,111.59,78.7,113.56,76.49,113.56Z"/></g><g id="Path_89-2" data-name="Path 89"><path class="cls-9" d="M89.06,105a1,1,0,0,1-1-.8,1,1,0,0,1,.78-1.18,14.28,14.28,0,0,0,4.79-1.93,1,1,0,0,1,1.38.31,1,1,0,0,1-.31,1.38,16.33,16.33,0,0,1-5.46,2.2Z"/></g><g id="Path_93-2" data-name="Path 93"><path class="cls-9" d="M23.4,116.19a9.48,9.48,0,0,1-4.33-1,1,1,0,0,1,.92-1.78,7.48,7.48,0,0,0,4,.81,1,1,0,1,1,.14,2C23.87,116.19,23.64,116.19,23.4,116.19Z"/></g><g id="Path_96-2" data-name="Path 96"><path class="cls-9" d="M36.26,124.08a10.24,10.24,0,0,1-3.7-.69,1,1,0,0,1,.72-1.87,8.26,8.26,0,0,0,4.69.38,1,1,0,0,1,.41,2A10.11,10.11,0,0,1,36.26,124.08Z"/></g><g id="Path_76-2" data-name="Path 76"><path class="cls-9" d="M23.71,100.08c-3.88,0-9.8-1.49-12.32-3.14A1.5,1.5,0,0,1,13,94.43c1.94,1.27,7.66,2.78,11.09,2.65a1.5,1.5,0,1,1,.12,3Z"/></g><g id="Path_79-2" data-name="Path 79"><path class="cls-9" d="M66.78,123.39a11.67,11.67,0,0,1-3.25-.4,1,1,0,0,1-.68-1.24,1,1,0,0,1,1.25-.68c3.47,1,10.43-.66,12.66-2.26a1,1,0,0,1,1.17,1.63C75.87,121.92,70.89,123.39,66.78,123.39Z"/></g><g id="Path_80-2" data-name="Path 80"><path class="cls-9" d="M55.44,117.49a40.36,40.36,0,0,1-6.77-.58,1,1,0,0,1,.34-2A38.28,38.28,0,0,0,65.94,114a1,1,0,1,1,.55,1.93A40.39,40.39,0,0,1,55.44,117.49Z"/></g><g id="Path_81-2" data-name="Path 81"><path class="cls-9" d="M71.46,107.47h-.07a2,2,0,0,1,0-4h.08c1.78,0,9.09-1.42,10.83-2.34a2,2,0,1,1,1.87,3.54C81.71,106,73.62,107.47,71.46,107.47Z"/></g></g></g></g></g></svg>