<svg xmlns="http://www.w3.org/2000/svg" xmlns:xlink="http://www.w3.org/1999/xlink" width="500" height="248" viewBox="0 0 500 248">
  <defs>
    <style>
      .cls-1 {
        clip-path: url(#clip-Prototyping_Icon);
      }

      .cls-2 {
        fill: #3e118d;
        font-size: 40px;
        font-family: NotoSansSC-Thin, Noto Sans SC;
        font-weight: 200;
      }

      .cls-3 {
        fill: #ad9bcf;
      }

      .cls-4 {
        fill: #fff;
      }
    </style>
    <clipPath id="clip-Prototyping_Icon">
      <rect width="500" height="248"/>
    </clipPath>
  </defs>
  <g id="Prototyping_Icon" class="cls-1">
    <rect class="cls-4" width="500" height="248"/>
    <text id="Prototyping" class="cls-2" transform="translate(250 192)"><tspan x="-103.02" y="0">Prototyping</tspan></text>
    <g id="noun_Work_1360671" transform="translate(198.005 -3.361)">
      <path id="Path_3" data-name="Path 3" class="cls-3" d="M8.573,58.979C1.19,66.331-.078,76.054,5.121,84.965L7.2,88.428,18.244,77.489l2.9.094.135,2.964L10.2,91.621l3.64,2.007a20.485,20.485,0,0,0,9.92,2.589,21.733,21.733,0,0,0,15.38-6.655c6.406-6.374,8.319-15.234,5.064-23.116l8.984-8.984,8.433,8.433-12.1,12.094L53.922,82.4l4.8-4.8,24.52,24.52L101.963,83.4l-24.52-24.52,4.388-4.388-4.409-4.409L65.984,61.517l-8.433-8.433,8.319-8.319a22.492,22.492,0,0,0,21.255-5.615c7.373-7.362,8.641-17.074,3.4-26L88.445,9.69,77.5,20.557l-2.87-.083L74.5,17.541,85.585,6.456,81.946,4.449c-8.319-4.586-18.26-2.984-25.3,4.066-6.4,6.374-8.319,15.234-5.064,23.116l-7.695,7.695L28.06,23.5l3.432-3.432L14.189,2.775,2.625,14.349,19.918,31.642l3.733-3.733L39.436,43.735l-9.65,9.65A22.461,22.461,0,0,0,8.573,58.979ZM93.145,83.4l-9.9,9.9-20.111-20.1,9.9-9.9Zm-81.7-69.047L14.189,11.6l8.464,8.464L19.918,22.8Zm47.75,18.509-1.1-2.08C54.868,24.8,56.012,17.947,61.065,12.9c3.951-3.941,8.964-5.522,13.726-4.523l-6.686,6.686L68.584,26.5l11.407.364,6.915-6.842c1.56,5.2.156,10.4-4.159,14.631h0a16.211,16.211,0,0,1-16.638,3.556l-1.861-.666L36.6,65.219l1.1,2.08c3.234,5.979,2.08,12.832-2.974,17.875-3.962,3.972-8.964,5.553-13.778,4.544l6.686-6.686-.52-11.438-11.366-.354-6.9,6.769C7.294,72.81,8.719,67.61,13,63.4a16.191,16.191,0,0,1,16.638-3.536l1.861.676Z" transform="translate(0 32.5)"/>
    </g>
  </g>
</svg>
